<svg data-v-1e121de1="" version="1.0" xmlns="http://www.w3.org/2000/svg" xmlns:xlink="http://www.w3.org/1999/xlink" width="100%" height="100%" viewBox="0 0 340.000000 250.000000" preserveAspectRatio="xMidYMid meet" color-interpolation-filters="sRGB" class="el-tooltip" style="margin: auto;"><rect data-v-1e121de1="" x="0" y="0" width="100%" height="100%" fill="#bd081c" fill-opacity="1" class="background"></rect>  <g data-v-1e121de1="" fill="#ffffff" class="icon-text-wrapper icon-svg-group iconsvg" transform="translate(89.55999755859375,73.43028259277344)"><g class="iconsvg-imagesvg font-path" transform="translate(50.44000244140625,0)"><rect fill="#ffffff" fill-opacity="0" stroke-width="2" x="0" y="0" width="60" height="60.2744254570694" class="image-rect"></rect> <svg viewBox="0 0 60 60.2744254570694" x="0" y="0" width="60" height="60.2744254570694" filtersec="colorsf9278056837" class="image-svg-svg initial"><g mask="url(#43f125a2-53be-4a12-8333-d1d659ef1472)"><svg xmlns="http://www.w3.org/2000/svg" xmlns:xlink="http://www.w3.org/1999/xlink" version="1.1" x="0" y="0" viewBox="5.174516201019287 4.919494152069092 89.65097045898438 90.0610122680664" enable-background="new 0 0 100 100" xml:space="preserve" width="60" height="60.2744254570694" filter="url(#colors9333990933)"><g><path d="M54.4,78.4l12.8,12.8c0.3,0.3,0.7,0.3,0.9,0l0,0c0.3-0.3,0.3-0.7,0-0.9L55.3,77.5c-0.3-0.3-0.7-0.3-0.9,0h0   C54.2,77.7,54.2,78.1,54.4,78.4z"></path><path d="M67.3,91.2L54.4,78.4c-0.3-0.3-0.3-0.7,0-0.9h0c0.3-0.3,0.7-0.3,0.9,0l12.8,12.8c0.3,0.3,0.3,0.7,0,0.9l0,0   C67.9,91.4,67.5,91.4,67.3,91.2z"></path><path d="M68.2,90.3L55.3,77.5c-0.3-0.3-0.7-0.3-0.9,0l0,0c-0.3,0.3-0.3,0.7,0,0.9l12.8,12.8c0.3,0.3,0.7,0.3,0.9,0l0,0   C68.4,90.9,68.4,90.5,68.2,90.3z"></path><path d="M45.7,77.6l7.7,16.4c0.2,0.3,0,0.7-0.3,0.9h0c-0.3,0.2-0.7,0-0.9-0.3l-7.7-16.4c-0.2-0.3,0-0.7,0.3-0.9h0   C45.1,77.2,45.5,77.3,45.7,77.6z"></path><path d="M48.1,77.6l9.1,15.7c0.2,0.3,0.1,0.7-0.2,0.9l0,0c-0.3,0.2-0.7,0.1-0.9-0.2L47,78.2c-0.2-0.3-0.1-0.7,0.2-0.9l0,0   C47.5,77.2,47.9,77.3,48.1,77.6z"></path><path d="M50.5,77.5l10.4,14.9c0.2,0.3,0.1,0.7-0.2,0.9v0c-0.3,0.2-0.7,0.1-0.9-0.2L49.5,78.3c-0.2-0.3-0.1-0.7,0.2-0.9l0,0   C49.9,77.2,50.3,77.2,50.5,77.5z"></path><path d="M53,77.5l11.7,13.9c0.2,0.3,0.2,0.7-0.1,0.9l0,0c-0.3,0.2-0.7,0.2-0.9-0.1L52,78.3c-0.2-0.3-0.2-0.7,0.1-0.9v0   C52.3,77.2,52.7,77.2,53,77.5z"></path><path d="M55.3,77.5l12.8,12.8c0.3,0.3,0.3,0.7,0,0.9l0,0c-0.3,0.3-0.7,0.3-0.9,0L54.4,78.4c-0.3-0.3-0.3-0.7,0-0.9l0,0   C54.7,77.2,55.1,77.2,55.3,77.5z"></path><path d="M63.9,75.1l16.4,7.7c0.3,0.2,0.7,0,0.9-0.3h0c0.2-0.3,0-0.7-0.3-0.9L64.4,74c-0.3-0.2-0.7,0-0.9,0.3l0,0   C63.4,74.6,63.6,75,63.9,75.1z"></path><path d="M80.3,82.8l-16.4-7.7c-0.3-0.2-0.5-0.5-0.3-0.9l0,0c0.2-0.3,0.5-0.5,0.9-0.3l16.4,7.7c0.3,0.2,0.5,0.5,0.3,0.9h0   C81,82.8,80.7,83,80.3,82.8z"></path><path d="M80.9,81.6L64.4,74c-0.3-0.2-0.7,0-0.9,0.3h0c-0.2,0.3,0,0.7,0.3,0.9l16.4,7.7c0.3,0.2,0.7,0,0.9-0.3l0,0   C81.3,82.2,81.2,81.8,80.9,81.6z"></path><path d="M55.4,77.5l12.8,12.8c0.3,0.3,0.3,0.7,0,0.9l0,0c-0.3,0.3-0.7,0.3-0.9,0L54.5,78.4c-0.3-0.3-0.3-0.7,0-0.9l0,0   C54.7,77.2,55.1,77.2,55.4,77.5z"></path><path d="M57.6,76.6l13.9,11.7c0.3,0.2,0.3,0.6,0.1,0.9l0,0c-0.2,0.3-0.6,0.3-0.9,0.1L56.8,77.6c-0.3-0.2-0.3-0.6-0.1-0.9l0,0   C57,76.4,57.4,76.4,57.6,76.6z"></path><path d="M59.9,75.7l14.9,10.4c0.3,0.2,0.4,0.6,0.2,0.9l0,0c-0.2,0.3-0.6,0.4-0.9,0.2L59.2,76.7c-0.3-0.2-0.4-0.6-0.2-0.9l0,0   C59.2,75.6,59.6,75.5,59.9,75.7z"></path><path d="M62.2,74.8l15.7,9.1c0.3,0.2,0.4,0.6,0.2,0.9l0,0c-0.2,0.3-0.6,0.4-0.9,0.2l-15.7-9.1c-0.3-0.2-0.4-0.6-0.2-0.9l0,0   C61.5,74.8,61.9,74.6,62.2,74.8z"></path><path d="M64.4,74l16.4,7.7c0.3,0.2,0.5,0.5,0.3,0.9l0,0c-0.2,0.3-0.5,0.5-0.9,0.3l-16.4-7.7c-0.3-0.2-0.5-0.5-0.3-0.9l0,0   C63.7,74,64.1,73.8,64.4,74z"></path><path d="M71.6,68.9l18.1,1.6c0.4,0,0.7-0.2,0.7-0.6l0,0c0-0.4-0.2-0.7-0.6-0.7l-18.1-1.6c-0.4,0-0.7,0.2-0.7,0.6l0,0   C71,68.5,71.3,68.9,71.6,68.9z"></path><path d="M89.7,70.5l-18.1-1.6c-0.4,0-0.6-0.3-0.6-0.7l0,0c0-0.4,0.3-0.6,0.7-0.6l18.1,1.6c0.4,0,0.6,0.3,0.6,0.7l0,0   C90.4,70.2,90,70.5,89.7,70.5z"></path><path d="M89.8,69.2l-18.1-1.6c-0.4,0-0.7,0.2-0.7,0.6l0,0c0,0.4,0.2,0.7,0.6,0.7l18.1,1.6c0.4,0,0.7-0.2,0.7-0.6l0,0   C90.4,69.5,90.2,69.2,89.8,69.2z"></path><path d="M64.4,74l16.4,7.7c0.3,0.2,0.5,0.5,0.3,0.9l0,0c-0.2,0.3-0.5,0.5-0.9,0.3l-16.4-7.7c-0.3-0.2-0.5-0.5-0.3-0.9h0   C63.7,74,64.1,73.8,64.4,74z"></path><path d="M66.2,72.4l17.1,6.2c0.3,0.1,0.5,0.5,0.4,0.8l0,0c-0.1,0.3-0.5,0.5-0.8,0.4l-17.1-6.2c-0.3-0.1-0.5-0.5-0.4-0.8l0,0   C65.5,72.4,65.9,72.3,66.2,72.4z"></path><path d="M68.1,70.8l17.5,4.7c0.3,0.1,0.5,0.4,0.5,0.8l0,0c-0.1,0.3-0.4,0.5-0.8,0.5L67.8,72c-0.3-0.1-0.5-0.4-0.5-0.8l0,0   C67.4,70.9,67.8,70.7,68.1,70.8z"></path><path d="M69.9,69.2l17.9,3.2c0.3,0.1,0.6,0.4,0.5,0.7l0,0c-0.1,0.3-0.4,0.6-0.7,0.5l-17.9-3.2c-0.3-0.1-0.6-0.4-0.5-0.7v0   C69.2,69.3,69.6,69.1,69.9,69.2z"></path><path d="M71.7,67.6l18.1,1.6c0.4,0,0.6,0.3,0.6,0.7l0,0c0,0.4-0.3,0.6-0.7,0.6l-18.1-1.6c-0.4,0-0.6-0.3-0.6-0.7l0,0   C71.1,67.8,71.4,67.6,71.7,67.6z"></path><path d="M76.8,60.3l17.5-4.7c0.3-0.1,0.5-0.4,0.5-0.8l0,0c-0.1-0.3-0.4-0.5-0.8-0.5l-17.5,4.7c-0.3,0.1-0.5,0.4-0.5,0.8v0   C76.1,60.2,76.4,60.4,76.8,60.3z"></path><path d="M94.3,55.6l-17.5,4.7c-0.3,0.1-0.7-0.1-0.8-0.5v0c-0.1-0.3,0.1-0.7,0.5-0.8L94,54.4c0.3-0.1,0.7,0.1,0.8,0.5l0,0   C94.9,55.2,94.7,55.5,94.3,55.6z"></path><path d="M94,54.4l-17.5,4.7c-0.3,0.1-0.5,0.4-0.5,0.8v0c0.1,0.3,0.4,0.5,0.8,0.5l17.5-4.7c0.3-0.1,0.5-0.4,0.5-0.8l0,0   C94.7,54.5,94.3,54.3,94,54.4z"></path><path d="M71.8,67.6l18.1,1.6c0.4,0,0.6,0.3,0.6,0.7h0c0,0.4-0.3,0.6-0.7,0.6l-18.1-1.6c-0.4,0-0.6-0.3-0.6-0.7l0,0   C71.1,67.8,71.4,67.5,71.8,67.6z"></path><path d="M72.9,65.5h18.1c0.4,0,0.6,0.3,0.6,0.6v0c0,0.4-0.3,0.6-0.6,0.6H72.9c-0.4,0-0.6-0.3-0.6-0.6v0   C72.3,65.8,72.6,65.5,72.9,65.5z"></path><path d="M74.1,63.3l18.1-1.6c0.4,0,0.7,0.2,0.7,0.6l0,0c0,0.4-0.2,0.7-0.6,0.7l-18.1,1.6c-0.4,0-0.7-0.2-0.7-0.6l0,0   C73.5,63.6,73.8,63.3,74.1,63.3z"></path><path d="M75.3,61.2L93.2,58c0.3-0.1,0.7,0.2,0.7,0.5v0c0.1,0.3-0.2,0.7-0.5,0.7l-17.9,3.2c-0.3,0.1-0.7-0.2-0.7-0.5l0,0   C74.7,61.6,74.9,61.2,75.3,61.2z"></path><path d="M76.4,59.1L94,54.4c0.3-0.1,0.7,0.1,0.8,0.5l0,0c0.1,0.3-0.1,0.7-0.5,0.8l-17.5,4.7c-0.3,0.1-0.7-0.1-0.8-0.5l0,0   C75.9,59.5,76.1,59.2,76.4,59.1z"></path><path d="M78.7,50.6l14.9-10.4c0.3-0.2,0.4-0.6,0.2-0.9l0,0c-0.2-0.3-0.6-0.4-0.9-0.2L77.9,49.5c-0.3,0.2-0.4,0.6-0.2,0.9l0,0   C78,50.7,78.4,50.8,78.7,50.6z"></path><path d="M93.6,40.2L78.7,50.6c-0.3,0.2-0.7,0.1-0.9-0.2l0,0c-0.2-0.3-0.1-0.7,0.2-0.9l14.9-10.4c0.3-0.2,0.7-0.1,0.9,0.2l0,0   C93.9,39.6,93.8,40,93.6,40.2z"></path><path d="M92.8,39.1L77.9,49.5c-0.3,0.2-0.4,0.6-0.2,0.9l0,0c0.2,0.3,0.6,0.4,0.9,0.2l14.9-10.4c0.3-0.2,0.4-0.6,0.2-0.9l0,0   C93.5,39,93.1,38.9,92.8,39.1z"></path><path d="M76.4,59.1L94,54.4c0.3-0.1,0.7,0.1,0.8,0.5v0c0.1,0.3-0.1,0.7-0.5,0.8l-17.5,4.7c-0.3,0.1-0.7-0.1-0.8-0.5l0,0   C75.9,59.5,76.1,59.2,76.4,59.1z"></path><path d="M76.8,56.7l17.1-6.2c0.3-0.1,0.7,0.1,0.8,0.4v0c0.1,0.3-0.1,0.7-0.4,0.8l-17.1,6.2c-0.3,0.1-0.7-0.1-0.8-0.4v0   C76.3,57.2,76.5,56.8,76.8,56.7z"></path><path d="M77.2,54.3l16.4-7.7c0.3-0.2,0.7,0,0.9,0.3l0,0c0.2,0.3,0,0.7-0.3,0.9l-16.4,7.7c-0.3,0.2-0.7,0-0.9-0.3l0,0   C76.7,54.8,76.9,54.4,77.2,54.3z"></path><path d="M77.6,51.9l15.7-9.1c0.3-0.2,0.7-0.1,0.9,0.2l0,0c0.2,0.3,0.1,0.7-0.2,0.9L78.2,53c-0.3,0.2-0.7,0.1-0.9-0.2l0,0   C77.2,52.4,77.3,52.1,77.6,51.9z"></path><path d="M77.9,49.5l14.9-10.4c0.3-0.2,0.7-0.1,0.9,0.2l0,0c0.2,0.3,0.1,0.7-0.2,0.9L78.7,50.6c-0.3,0.2-0.7,0.1-0.9-0.2l0,0   C77.6,50.1,77.7,49.7,77.9,49.5z"></path><path d="M77.1,40.7l10.4-14.9c0.2-0.3,0.1-0.7-0.2-0.9h0c-0.3-0.2-0.7-0.1-0.9,0.2L76.1,40c-0.2,0.3-0.1,0.7,0.2,0.9l0,0   C76.5,41.1,76.9,41,77.1,40.7z"></path><path d="M87.6,25.8L77.1,40.7c-0.2,0.3-0.6,0.4-0.9,0.2l0,0c-0.3-0.2-0.4-0.6-0.2-0.9l10.4-14.9c0.2-0.3,0.6-0.4,0.9-0.2h0   C87.7,25.2,87.8,25.6,87.6,25.8z"></path><path d="M86.5,25.1L76.1,40c-0.2,0.3-0.1,0.7,0.2,0.9l0,0c0.3,0.2,0.7,0.1,0.9-0.2l10.4-14.9c0.2-0.3,0.1-0.7-0.2-0.9h0   C87.1,24.7,86.7,24.8,86.5,25.1z"></path><path d="M78,49.5l14.9-10.4c0.3-0.2,0.7-0.1,0.9,0.2v0c0.2,0.3,0.1,0.7-0.2,0.9L78.7,50.5c-0.3,0.2-0.7,0.1-0.9-0.2l0,0   C77.6,50.1,77.7,49.7,78,49.5z"></path><path d="M77.5,47.1l13.9-11.7c0.3-0.2,0.7-0.2,0.9,0.1l0,0c0.2,0.3,0.2,0.7-0.1,0.9L78.3,48.1c-0.3,0.2-0.7,0.2-0.9-0.1l0,0   C77.2,47.8,77.2,47.3,77.5,47.1z"></path><path d="M77,44.7l12.8-12.8c0.3-0.3,0.7-0.3,0.9,0v0c0.3,0.3,0.3,0.7,0,0.9L77.9,45.6c-0.3,0.3-0.7,0.3-0.9,0v0   C76.8,45.4,76.8,44.9,77,44.7z"></path><path d="M76.5,42.3l11.7-13.9c0.2-0.3,0.6-0.3,0.9-0.1h0c0.3,0.2,0.3,0.6,0.1,0.9L77.5,43.1c-0.2,0.3-0.6,0.3-0.9,0.1l0,0   C76.4,43,76.3,42.6,76.5,42.3z"></path><path d="M76.1,40l10.4-14.9c0.2-0.3,0.6-0.4,0.9-0.2h0c0.3,0.2,0.4,0.6,0.2,0.9L77.1,40.7c-0.2,0.3-0.6,0.4-0.9,0.2l0,0   C76,40.7,75.9,40.3,76.1,40z"></path><path d="M72.3,32L77,14.5c0.1-0.3-0.1-0.7-0.5-0.8l0,0c-0.3-0.1-0.7,0.1-0.8,0.5l-4.7,17.5c-0.1,0.3,0.1,0.7,0.5,0.8l0,0   C71.9,32.6,72.2,32.4,72.3,32z"></path><path d="M77,14.5L72.3,32c-0.1,0.3-0.4,0.5-0.8,0.5l0,0c-0.3-0.1-0.5-0.4-0.5-0.8l4.7-17.5c0.1-0.3,0.4-0.5,0.8-0.5l0,0   C76.9,13.8,77.1,14.1,77,14.5z"></path><path d="M75.8,14.1l-4.7,17.5c-0.1,0.3,0.1,0.7,0.5,0.8l0,0c0.3,0.1,0.7-0.1,0.8-0.5L77,14.5c0.1-0.3-0.1-0.7-0.5-0.8v0   C76.2,13.6,75.9,13.8,75.8,14.1z"></path><path d="M76.1,40l10.4-14.9c0.2-0.3,0.6-0.4,0.9-0.2h0c0.3,0.2,0.4,0.6,0.2,0.9L77.1,40.7c-0.2,0.3-0.6,0.4-0.9,0.2l0,0   C76,40.7,75.9,40.3,76.1,40z"></path><path d="M74.8,37.9l9.1-15.7c0.2-0.3,0.6-0.4,0.9-0.2l0,0c0.3,0.2,0.4,0.6,0.2,0.9L76,38.6c-0.2,0.3-0.6,0.4-0.9,0.2l0,0   C74.8,38.6,74.7,38.2,74.8,37.9z"></path><path d="M73.6,35.8l7.7-16.4c0.2-0.3,0.5-0.5,0.9-0.3v0c0.3,0.2,0.5,0.5,0.3,0.9l-7.7,16.4c-0.2,0.3-0.5,0.5-0.9,0.3l0,0   C73.6,36.5,73.4,36.1,73.6,35.8z"></path><path d="M72.3,33.7l6.2-17.1c0.1-0.3,0.5-0.5,0.8-0.4l0,0c0.3,0.1,0.5,0.5,0.4,0.8l-6.2,17.1c-0.1,0.3-0.5,0.5-0.8,0.4l0,0   C72.4,34.4,72.2,34.1,72.3,33.7z"></path><path d="M71.1,31.7l4.7-17.5c0.1-0.3,0.4-0.5,0.8-0.5v0c0.3,0.1,0.5,0.4,0.5,0.8L72.3,32c-0.1,0.3-0.4,0.5-0.8,0.5l0,0   C71.2,32.4,71,32,71.1,31.7z"></path><path d="M64.8,25.4L63.2,7.4c0-0.4-0.3-0.6-0.7-0.6l0,0c-0.4,0-0.6,0.3-0.6,0.7l1.6,18.1c0,0.4,0.3,0.6,0.7,0.6l0,0   C64.6,26.1,64.8,25.8,64.8,25.4z"></path><path d="M63.2,7.4l1.6,18.1c0,0.4-0.2,0.7-0.6,0.7l0,0c-0.4,0-0.7-0.2-0.7-0.6L61.9,7.5c0-0.4,0.2-0.7,0.6-0.7l0,0   C62.9,6.8,63.2,7,63.2,7.4z"></path><path d="M61.9,7.5l1.6,18.1c0,0.4,0.3,0.6,0.7,0.6l0,0c0.4,0,0.6-0.3,0.6-0.7L63.2,7.4c0-0.4-0.3-0.6-0.7-0.6l0,0   C62.2,6.8,61.9,7.1,61.9,7.5z"></path><path d="M71.1,31.6l4.7-17.5c0.1-0.3,0.4-0.5,0.8-0.5l0,0c0.3,0.1,0.5,0.4,0.5,0.8L72.3,32c-0.1,0.3-0.4,0.5-0.8,0.5l0,0   C71.2,32.3,71,32,71.1,31.6z"></path><path d="M69.2,30.1l3.2-17.9c0.1-0.3,0.4-0.6,0.7-0.5l0,0c0.3,0.1,0.6,0.4,0.5,0.7l-3.2,17.9c-0.1,0.3-0.4,0.6-0.7,0.5l0,0   C69.4,30.8,69.1,30.5,69.2,30.1z"></path><path d="M67.3,28.6l1.6-18.1c0-0.4,0.3-0.6,0.7-0.6h0c0.4,0,0.6,0.3,0.6,0.7l-1.6,18.1c0,0.4-0.3,0.6-0.7,0.6l0,0   C67.5,29.2,67.2,28.9,67.3,28.6z"></path><path d="M65.4,27.1V8.9c0-0.4,0.3-0.6,0.6-0.6l0,0c0.4,0,0.6,0.3,0.6,0.6v18.1c0,0.4-0.3,0.6-0.6,0.6l0,0   C65.7,27.7,65.4,27.4,65.4,27.1z"></path><path d="M63.5,25.6L61.9,7.5c0-0.4,0.2-0.7,0.6-0.7l0,0c0.4,0,0.7,0.2,0.7,0.6l1.6,18.1c0,0.4-0.2,0.7-0.6,0.7l0,0   C63.9,26.2,63.6,25.9,63.5,25.6z"></path><path d="M55.5,21.8L47.9,5.4c-0.2-0.3-0.5-0.5-0.9-0.3v0c-0.3,0.2-0.5,0.5-0.3,0.9l7.7,16.4c0.2,0.3,0.5,0.5,0.9,0.3l0,0   C55.5,22.5,55.7,22.2,55.5,21.8z"></path><path d="M47.9,5.4l7.7,16.4c0.2,0.3,0,0.7-0.3,0.9l0,0c-0.3,0.2-0.7,0-0.9-0.3L46.7,5.9c-0.2-0.3,0-0.7,0.3-0.9v0   C47.3,4.9,47.7,5.1,47.9,5.4z"></path><path d="M46.7,5.9l7.7,16.4c0.2,0.3,0.5,0.5,0.9,0.3h0c0.3-0.2,0.5-0.5,0.3-0.9L47.9,5.4c-0.2-0.3-0.5-0.5-0.9-0.3v0   C46.7,5.2,46.5,5.6,46.7,5.9z"></path><path d="M63.5,25.5L61.9,7.4c0-0.4,0.2-0.7,0.6-0.7l0,0c0.4,0,0.7,0.2,0.7,0.6l1.6,18.1c0,0.4-0.2,0.7-0.6,0.7l0,0   C63.9,26.1,63.6,25.9,63.5,25.5z"></path><path d="M61.2,24.7L58.1,6.9c-0.1-0.3,0.2-0.7,0.5-0.7l0,0c0.3-0.1,0.7,0.2,0.7,0.5l3.2,17.9c0.1,0.3-0.2,0.7-0.5,0.7h0   C61.6,25.3,61.3,25.1,61.2,24.7z"></path><path d="M58.9,23.9L54.2,6.4c-0.1-0.3,0.1-0.7,0.5-0.8v0c0.3-0.1,0.7,0.1,0.8,0.5l4.7,17.5c0.1,0.3-0.1,0.7-0.5,0.8h0   C59.4,24.5,59,24.3,58.9,23.9z"></path><path d="M56.6,23.2L50.4,6.1c-0.1-0.3,0.1-0.7,0.4-0.8v0c0.3-0.1,0.7,0.1,0.8,0.4l6.2,17.1c0.1,0.3-0.1,0.7-0.4,0.8l0,0   C57.1,23.7,56.7,23.5,56.6,23.2z"></path><path d="M54.4,22.4L46.7,5.9c-0.2-0.3,0-0.7,0.3-0.9l0,0c0.3-0.2,0.7,0,0.9,0.3l7.7,16.4c0.2,0.3,0,0.7-0.3,0.9h0   C54.9,22.8,54.5,22.7,54.4,22.4z"></path><path d="M45.6,21.6L32.7,8.8c-0.3-0.3-0.7-0.3-0.9,0v0c-0.3,0.3-0.3,0.7,0,0.9l12.8,12.8c0.3,0.3,0.7,0.3,0.9,0l0,0   C45.8,22.3,45.8,21.9,45.6,21.6z"></path><path d="M32.7,8.8l12.8,12.8c0.3,0.3,0.3,0.7,0,0.9v0c-0.3,0.3-0.7,0.3-0.9,0L31.8,9.7c-0.3-0.3-0.3-0.7,0-0.9v0   C32.1,8.6,32.5,8.6,32.7,8.8z"></path><path d="M31.8,9.7l12.8,12.8c0.3,0.3,0.7,0.3,0.9,0l0,0c0.3-0.3,0.3-0.7,0-0.9L32.7,8.8c-0.3-0.3-0.7-0.3-0.9,0l0,0   C31.6,9.1,31.6,9.5,31.8,9.7z"></path><path d="M54.3,22.4L46.7,5.9c-0.2-0.3,0-0.7,0.3-0.9v0c0.3-0.2,0.7,0,0.9,0.3l7.7,16.4c0.2,0.3,0,0.7-0.3,0.9v0   C54.9,22.8,54.5,22.7,54.3,22.4z"></path><path d="M51.9,22.4L42.8,6.7c-0.2-0.3-0.1-0.7,0.2-0.9v0c0.3-0.2,0.7-0.1,0.9,0.2L53,21.8c0.2,0.3,0.1,0.7-0.2,0.9l0,0   C52.5,22.8,52.1,22.7,51.9,22.4z"></path><path d="M49.4,22.5L39,7.6c-0.2-0.3-0.1-0.7,0.2-0.9v0c0.3-0.2,0.7-0.1,0.9,0.2l10.4,14.9c0.2,0.3,0.1,0.7-0.2,0.9h0   C50.1,22.8,49.6,22.8,49.4,22.5z"></path><path d="M47,22.5L35.4,8.6c-0.2-0.3-0.2-0.7,0.1-0.9v0c0.3-0.2,0.7-0.2,0.9,0.1L48,21.7c0.2,0.3,0.2,0.7-0.1,0.9l0,0   C47.7,22.8,47.3,22.8,47,22.5z"></path><path d="M44.6,22.5L31.8,9.7c-0.3-0.3-0.3-0.7,0-0.9l0,0c0.3-0.3,0.7-0.3,0.9,0l12.8,12.8c0.3,0.3,0.3,0.7,0,0.9l0,0   C45.3,22.8,44.9,22.8,44.6,22.5z"></path><path d="M36.1,24.9l-16.4-7.7c-0.3-0.2-0.7,0-0.9,0.3v0c-0.2,0.3,0,0.7,0.3,0.9L35.6,26c0.3,0.2,0.7,0,0.9-0.3v0   C36.6,25.4,36.5,25,36.1,24.9z"></path><path d="M19.7,17.2l16.4,7.7c0.3,0.2,0.5,0.5,0.3,0.9l0,0c-0.2,0.3-0.5,0.5-0.9,0.3l-16.4-7.7c-0.3-0.2-0.5-0.5-0.3-0.9v0   C19,17.2,19.4,17,19.7,17.2z"></path><path d="M19.2,18.4L35.6,26c0.3,0.2,0.7,0,0.9-0.3v0c0.2-0.3,0-0.7-0.3-0.9l-16.4-7.7c-0.3-0.2-0.7,0-0.9,0.3v0   C18.7,17.8,18.8,18.2,19.2,18.4z"></path><path d="M44.6,22.5L31.8,9.7c-0.3-0.3-0.3-0.7,0-0.9l0,0c0.3-0.3,0.7-0.3,0.9,0l12.8,12.8c0.3,0.3,0.3,0.7,0,0.9l0,0   C45.3,22.8,44.9,22.8,44.6,22.5z"></path><path d="M42.4,23.4L28.5,11.8c-0.3-0.2-0.3-0.6-0.1-0.9l0,0c0.2-0.3,0.6-0.3,0.9-0.1l13.9,11.7c0.3,0.2,0.3,0.6,0.1,0.9l0,0   C43.1,23.6,42.7,23.6,42.4,23.4z"></path><path d="M40.1,24.3L25.2,13.9c-0.3-0.2-0.4-0.6-0.2-0.9v0c0.2-0.3,0.6-0.4,0.9-0.2l14.9,10.4c0.3,0.2,0.4,0.6,0.2,0.9h0   C40.8,24.4,40.4,24.5,40.1,24.3z"></path><path d="M37.8,25.2l-15.7-9.1c-0.3-0.2-0.4-0.6-0.2-0.9v0c0.2-0.3,0.6-0.4,0.9-0.2l15.7,9.1c0.3,0.2,0.4,0.6,0.2,0.9v0   C38.5,25.2,38.1,25.4,37.8,25.2z"></path><path d="M35.6,26l-16.4-7.7c-0.3-0.2-0.5-0.5-0.3-0.9v0c0.2-0.3,0.5-0.5,0.9-0.3l16.4,7.7c0.3,0.2,0.5,0.5,0.3,0.9v0   C36.3,26,35.9,26.2,35.6,26z"></path><path d="M28.4,31.1l-18.1-1.6c-0.4,0-0.7,0.2-0.7,0.6v0c0,0.4,0.2,0.7,0.6,0.7l18.1,1.6c0.4,0,0.7-0.2,0.7-0.6v0   C29,31.5,28.7,31.2,28.4,31.1z"></path><path d="M10.3,29.5l18.1,1.6c0.4,0,0.6,0.3,0.6,0.7v0c0,0.4-0.3,0.6-0.7,0.6l-18.1-1.6c-0.4,0-0.6-0.3-0.6-0.7v0   C9.6,29.8,9.9,29.5,10.3,29.5z"></path><path d="M10.2,30.8l18.1,1.6c0.4,0,0.7-0.2,0.7-0.6l0,0c0-0.4-0.2-0.7-0.6-0.7l-18.1-1.6c-0.4,0-0.7,0.2-0.7,0.6v0   C9.6,30.5,9.8,30.8,10.2,30.8z"></path><path d="M35.6,26l-16.4-7.7c-0.3-0.2-0.5-0.5-0.3-0.9h0c0.2-0.3,0.5-0.5,0.9-0.3l16.4,7.7c0.3,0.2,0.5,0.5,0.3,0.9l0,0   C36.3,26.1,35.9,26.2,35.6,26z"></path><path d="M33.7,27.6l-17.1-6.2c-0.3-0.1-0.5-0.5-0.4-0.8l0,0c0.1-0.3,0.5-0.5,0.8-0.4l17.1,6.2c0.3,0.1,0.5,0.5,0.4,0.8v0   C34.4,27.6,34.1,27.8,33.7,27.6z"></path><path d="M31.9,29.3l-17.5-4.7c-0.3-0.1-0.5-0.4-0.5-0.8h0c0.1-0.3,0.4-0.5,0.8-0.5L32.2,28c0.3,0.1,0.5,0.4,0.5,0.8v0   C32.6,29.1,32.2,29.3,31.9,29.3z"></path><path d="M30.1,30.8l-17.9-3.2c-0.3-0.1-0.6-0.4-0.5-0.7v0c0.1-0.3,0.4-0.6,0.7-0.5l17.9,3.2c0.3,0.1,0.6,0.4,0.5,0.7v0   C30.7,30.7,30.4,30.9,30.1,30.8z"></path><path d="M28.3,32.4l-18.1-1.6c-0.4,0-0.6-0.3-0.6-0.7v0c0-0.4,0.3-0.6,0.7-0.6l18.1,1.6c0.4,0,0.6,0.3,0.6,0.7l0,0   C28.9,32.2,28.6,32.4,28.3,32.4z"></path><path d="M23.2,39.6L5.7,44.3c-0.3,0.1-0.5,0.4-0.5,0.8v0c0.1,0.3,0.4,0.5,0.8,0.5l17.5-4.7c0.3-0.1,0.5-0.4,0.5-0.8l0,0   C23.9,39.8,23.6,39.6,23.2,39.6z"></path><path d="M5.7,44.3l17.5-4.7c0.3-0.1,0.7,0.1,0.8,0.5l0,0c0.1,0.3-0.1,0.7-0.5,0.8L6,45.6c-0.3,0.1-0.7-0.1-0.8-0.5l0,0   C5.2,44.8,5.4,44.4,5.7,44.3z"></path><path d="M6,45.6l17.5-4.7c0.3-0.1,0.5-0.4,0.5-0.8l0,0c-0.1-0.3-0.4-0.5-0.8-0.5L5.7,44.3c-0.3,0.1-0.5,0.4-0.5,0.8v0   C5.3,45.5,5.7,45.7,6,45.6z"></path><path d="M28.3,32.4l-18.1-1.6c-0.4,0-0.6-0.3-0.6-0.7v0c0-0.4,0.3-0.6,0.7-0.6l18.1,1.6c0.4,0,0.6,0.3,0.6,0.7v0   C28.9,32.2,28.6,32.4,28.3,32.4z"></path><path d="M27.1,34.5H8.9c-0.4,0-0.6-0.3-0.6-0.6v0c0-0.4,0.3-0.6,0.6-0.6h18.1c0.4,0,0.6,0.3,0.6,0.6v0   C27.7,34.2,27.5,34.5,27.1,34.5z"></path><path d="M25.9,36.7L7.8,38.3c-0.4,0-0.7-0.2-0.7-0.6v0c0-0.4,0.2-0.7,0.6-0.7l18.1-1.6c0.4,0,0.7,0.2,0.7,0.6v0   C26.5,36.3,26.3,36.7,25.9,36.7z"></path><path d="M24.7,38.8L6.9,42c-0.3,0.1-0.7-0.2-0.7-0.5l0,0c-0.1-0.3,0.2-0.7,0.5-0.7l17.9-3.2c0.3-0.1,0.7,0.2,0.7,0.5l0,0   C25.3,38.4,25.1,38.7,24.7,38.8z"></path><path d="M23.6,40.9L6,45.6c-0.3,0.1-0.7-0.1-0.8-0.5l0,0c-0.1-0.3,0.1-0.7,0.5-0.8l17.5-4.7c0.3-0.1,0.7,0.1,0.8,0.5l0,0   C24.1,40.4,23.9,40.8,23.6,40.9z"></path><path d="M21.3,49.4L6.4,59.9c-0.3,0.2-0.4,0.6-0.2,0.9h0c0.2,0.3,0.6,0.4,0.9,0.2l14.9-10.4c0.3-0.2,0.4-0.6,0.2-0.9l0,0   C22,49.3,21.6,49.2,21.3,49.4z"></path><path d="M6.4,59.9l14.9-10.4c0.3-0.2,0.7-0.1,0.9,0.2l0,0c0.2,0.3,0.1,0.7-0.2,0.9L7.2,60.9c-0.3,0.2-0.7,0.1-0.9-0.2h0   C6.1,60.5,6.2,60.1,6.4,59.9z"></path><path d="M7.2,60.9l14.9-10.4c0.3-0.2,0.4-0.6,0.2-0.9l0,0c-0.2-0.3-0.6-0.4-0.9-0.2L6.4,59.9c-0.3,0.2-0.4,0.6-0.2,0.9h0   C6.5,61,6.9,61.1,7.2,60.9z"></path><path d="M23.6,40.9L6,45.6c-0.3,0.1-0.7-0.1-0.8-0.5l0,0c-0.1-0.3,0.1-0.7,0.5-0.8l17.5-4.7c0.3-0.1,0.7,0.1,0.8,0.5v0   C24.1,40.5,23.9,40.8,23.6,40.9z"></path><path d="M23.2,43.3L6.1,49.5c-0.3,0.1-0.7-0.1-0.8-0.4h0c-0.1-0.3,0.1-0.7,0.4-0.8l17.1-6.2c0.3-0.1,0.7,0.1,0.8,0.4l0,0   C23.7,42.8,23.5,43.2,23.2,43.3z"></path><path d="M22.8,45.8L6.4,53.4c-0.3,0.2-0.7,0-0.9-0.3h0c-0.2-0.3,0-0.7,0.3-0.9l16.4-7.7c0.3-0.2,0.7,0,0.9,0.3l0,0   C23.3,45.2,23.1,45.6,22.8,45.8z"></path><path d="M22.4,48.1L6.7,57.2C6.4,57.4,6,57.3,5.8,57h0c-0.2-0.3-0.1-0.7,0.2-0.9L21.8,47c0.3-0.2,0.7-0.1,0.9,0.2l0,0   C22.8,47.6,22.7,48,22.4,48.1z"></path><path d="M22.1,50.5L7.2,60.9c-0.3,0.2-0.7,0.1-0.9-0.2h0c-0.2-0.3-0.1-0.7,0.2-0.9l14.9-10.4c0.3-0.2,0.7-0.1,0.9,0.2v0   C22.4,49.9,22.3,50.3,22.1,50.5z"></path><path d="M22.9,59.3L12.5,74.1c-0.2,0.3-0.1,0.7,0.2,0.9l0,0c0.3,0.2,0.7,0.1,0.9-0.2L23.9,60c0.2-0.3,0.1-0.7-0.2-0.9l0,0   C23.5,58.9,23.1,59,22.9,59.3z"></path><path d="M12.5,74.1l10.4-14.9c0.2-0.3,0.6-0.4,0.9-0.2l0,0c0.3,0.2,0.4,0.6,0.2,0.9L13.5,74.9c-0.2,0.3-0.6,0.4-0.9,0.2l0,0   C12.3,74.8,12.2,74.4,12.5,74.1z"></path><path d="M13.5,74.9L23.9,60c0.2-0.3,0.1-0.7-0.2-0.9h0c-0.3-0.2-0.7-0.1-0.9,0.2L12.5,74.1c-0.2,0.3-0.1,0.7,0.2,0.9l0,0   C12.9,75.2,13.3,75.2,13.5,74.9z"></path><path d="M22.1,50.5L7.2,60.9c-0.3,0.2-0.7,0.1-0.9-0.2h0c-0.2-0.3-0.1-0.7,0.2-0.9l14.9-10.4c0.3-0.2,0.7-0.1,0.9,0.2l0,0   C22.4,49.9,22.3,50.3,22.1,50.5z"></path><path d="M22.5,52.9L8.6,64.5c-0.3,0.2-0.7,0.2-0.9-0.1h0c-0.2-0.3-0.2-0.7,0.1-0.9l13.9-11.7c0.3-0.2,0.7-0.2,0.9,0.1v0   C22.8,52.2,22.8,52.6,22.5,52.9z"></path><path d="M23,55.3L10.2,68.1c-0.3,0.3-0.7,0.3-0.9,0h0c-0.3-0.3-0.3-0.7,0-0.9l12.8-12.8c0.3-0.3,0.7-0.3,0.9,0h0   C23.2,54.6,23.2,55,23,55.3z"></path><path d="M23.5,57.7L11.8,71.6c-0.2,0.3-0.6,0.3-0.9,0.1h0c-0.3-0.2-0.3-0.6-0.1-0.9l11.7-13.9c0.2-0.3,0.6-0.3,0.9-0.1l0,0   C23.7,57,23.7,57.4,23.5,57.7z"></path><path d="M23.9,60L13.5,74.9c-0.2,0.3-0.6,0.4-0.9,0.2h0c-0.3-0.2-0.4-0.6-0.2-0.9l10.4-14.9c0.2-0.3,0.6-0.4,0.9-0.2h0   C24,59.3,24.1,59.7,23.9,60z"></path><path d="M27.7,68L23,85.5c-0.1,0.3,0.1,0.7,0.5,0.8h0c0.3,0.1,0.7-0.1,0.8-0.5l4.7-17.5c0.1-0.3-0.1-0.7-0.5-0.8l0,0   C28.1,67.5,27.8,67.7,27.7,68z"></path><path d="M23,85.5L27.7,68c0.1-0.3,0.4-0.5,0.8-0.5v0c0.3,0.1,0.5,0.4,0.5,0.8l-4.7,17.5c-0.1,0.3-0.4,0.5-0.8,0.5l0,0   C23.1,86.2,22.9,85.9,23,85.5z"></path><path d="M24.2,85.9l4.7-17.5c0.1-0.3-0.1-0.7-0.5-0.8h0c-0.3-0.1-0.7,0.1-0.8,0.5L23,85.5c-0.1,0.3,0.1,0.7,0.5,0.8h0   C23.8,86.4,24.1,86.2,24.2,85.9z"></path><path d="M23.9,60L13.5,74.9c-0.2,0.3-0.6,0.4-0.9,0.2h0c-0.3-0.2-0.4-0.6-0.2-0.9l10.4-14.9c0.2-0.3,0.6-0.4,0.9-0.2h0   C24.1,59.4,24.1,59.8,23.9,60z"></path><path d="M25.2,62.1l-9.1,15.7c-0.2,0.3-0.6,0.4-0.9,0.2h0c-0.3-0.2-0.4-0.6-0.2-0.9l9.1-15.7c0.2-0.3,0.6-0.4,0.9-0.2l0,0   C25.2,61.4,25.3,61.8,25.2,62.1z"></path><path d="M26.4,64.2l-7.7,16.4c-0.2,0.3-0.5,0.5-0.9,0.3l0,0c-0.3-0.2-0.5-0.5-0.3-0.9l7.7-16.4c0.2-0.3,0.5-0.5,0.9-0.3h0   C26.5,63.5,26.6,63.9,26.4,64.2z"></path><path d="M27.7,66.3l-6.2,17.1c-0.1,0.3-0.5,0.5-0.8,0.4h0c-0.3-0.1-0.5-0.5-0.4-0.8l6.2-17.1c0.1-0.3,0.5-0.5,0.8-0.4l0,0   C27.6,65.6,27.8,66,27.7,66.3z"></path><path d="M28.9,68.3l-4.7,17.5c-0.1,0.3-0.4,0.5-0.8,0.5h0c-0.3-0.1-0.5-0.4-0.5-0.8L27.7,68c0.1-0.3,0.4-0.5,0.8-0.5h0   C28.8,67.6,29,68,28.9,68.3z"></path><path d="M27.7,68L23,85.5c-0.1,0.3,0.1,0.7,0.5,0.8l0,0c0.3,0.1,0.7-0.1,0.8-0.5l4.7-17.5c0.1-0.3-0.1-0.7-0.5-0.8v0   C28.1,67.5,27.8,67.7,27.7,68z"></path><path d="M23,85.5L27.7,68c0.1-0.3,0.4-0.5,0.8-0.5v0c0.3,0.1,0.5,0.4,0.5,0.8l-4.7,17.5c-0.1,0.3-0.4,0.5-0.8,0.5l0,0   C23.1,86.2,22.9,85.9,23,85.5z"></path><path d="M24.2,85.9l4.7-17.5c0.1-0.3-0.1-0.7-0.5-0.8l0,0c-0.3-0.1-0.7,0.1-0.8,0.5L23,85.5c-0.1,0.3,0.1,0.7,0.5,0.8l0,0   C23.8,86.4,24.1,86.2,24.2,85.9z"></path><path d="M27.7,66.3l-6.2,17.1c-0.1,0.3-0.5,0.5-0.8,0.4h0c-0.3-0.1-0.5-0.5-0.4-0.8l6.2-17.1c0.1-0.3,0.5-0.5,0.8-0.4l0,0   C27.6,65.6,27.8,66,27.7,66.3z"></path><path d="M28.9,68.3l-4.7,17.5c-0.1,0.3-0.4,0.5-0.8,0.5h0c-0.3-0.1-0.5-0.4-0.5-0.8L27.7,68c0.1-0.3,0.4-0.5,0.8-0.5h0   C28.8,67.6,29,68,28.9,68.3z"></path><path d="M35.2,74.5l1.6,18.1c0,0.4,0.3,0.6,0.7,0.6l0,0c0.4,0,0.6-0.3,0.6-0.7l-1.6-18.1c0-0.4-0.3-0.6-0.7-0.6l0,0   C35.4,73.9,35.1,74.2,35.2,74.5z"></path><path d="M36.8,92.6l-1.6-18.1c0-0.4,0.2-0.7,0.6-0.7l0,0c0.4,0,0.7,0.2,0.7,0.6L38,92.5c0,0.4-0.2,0.7-0.6,0.7l0,0   C37.1,93.2,36.8,93,36.8,92.6z"></path><path d="M38,92.5l-1.6-18.1c0-0.4-0.3-0.6-0.7-0.6l0,0c-0.4,0-0.6,0.3-0.6,0.7l1.6,18.1c0,0.4,0.3,0.6,0.7,0.6l0,0   C37.8,93.2,38.1,92.9,38,92.5z"></path><path d="M28.9,68.3l-4.7,17.5c-0.1,0.3-0.4,0.5-0.8,0.5l0,0c-0.3-0.1-0.5-0.4-0.5-0.8L27.7,68c0.1-0.3,0.4-0.5,0.8-0.5l0,0   C28.8,67.6,29,68,28.9,68.3z"></path><path d="M30.8,69.9l-3.2,17.9c-0.1,0.3-0.4,0.6-0.7,0.5h0c-0.3-0.1-0.6-0.4-0.5-0.7l3.2-17.9c0.1-0.3,0.4-0.6,0.7-0.5h0   C30.6,69.2,30.9,69.5,30.8,69.9z"></path><path d="M32.7,71.4l-1.6,18.1c0,0.4-0.3,0.6-0.7,0.6l0,0c-0.4,0-0.6-0.3-0.6-0.7l1.6-18.1c0-0.4,0.3-0.6,0.7-0.6l0,0   C32.5,70.7,32.8,71.1,32.7,71.4z"></path><path d="M34.6,72.9v18.1c0,0.4-0.3,0.6-0.6,0.6h0c-0.4,0-0.6-0.3-0.6-0.6V72.9c0-0.4,0.3-0.6,0.6-0.6h0   C34.3,72.3,34.6,72.6,34.6,72.9z"></path><path d="M36.5,74.4L38,92.5c0,0.4-0.2,0.7-0.6,0.7l0,0c-0.4,0-0.7-0.2-0.7-0.6l-1.6-18.1c0-0.4,0.2-0.7,0.6-0.7l0,0   C36.1,73.8,36.4,74.1,36.5,74.4z"></path><path d="M44.5,78.1l7.7,16.4c0.2,0.3,0.5,0.5,0.9,0.3h0c0.3-0.2,0.5-0.5,0.3-0.9l-7.7-16.4c-0.2-0.3-0.5-0.5-0.9-0.3h0   C44.5,77.4,44.3,77.8,44.5,78.1z"></path><path d="M52.2,94.6l-7.7-16.4c-0.2-0.3,0-0.7,0.3-0.9h0c0.3-0.2,0.7,0,0.9,0.3L53.3,94c0.2,0.3,0,0.7-0.3,0.9l0,0   C52.7,95.1,52.3,94.9,52.2,94.6z"></path><path d="M53.3,94l-7.7-16.4c-0.2-0.3-0.5-0.5-0.9-0.3h0c-0.3,0.2-0.5,0.5-0.3,0.9l7.7,16.4c0.2,0.3,0.5,0.5,0.9,0.3h0   C53.3,94.8,53.5,94.4,53.3,94z"></path><path d="M36.5,74.5l1.6,18.1c0,0.4-0.2,0.7-0.6,0.7l0,0c-0.4,0-0.7-0.2-0.7-0.6l-1.6-18.1c0-0.4,0.2-0.7,0.6-0.7l0,0   C36.2,73.8,36.5,74.1,36.5,74.5z"></path><path d="M38.8,75.2l3.2,17.9c0.1,0.3-0.2,0.7-0.5,0.7l0,0c-0.3,0.1-0.7-0.2-0.7-0.5l-3.2-17.9c-0.1-0.3,0.2-0.7,0.5-0.7h0   C38.4,74.7,38.7,74.9,38.8,75.2z"></path><path d="M41.1,76l4.7,17.5c0.1,0.3-0.1,0.7-0.5,0.8l0,0c-0.3,0.1-0.7-0.1-0.8-0.5l-4.7-17.5c-0.1-0.3,0.1-0.7,0.5-0.8h0   C40.7,75.5,41,75.7,41.1,76z"></path><path d="M43.4,76.8l6.2,17.1c0.1,0.3-0.1,0.7-0.4,0.8l0,0c-0.3,0.1-0.7-0.1-0.8-0.4l-6.2-17.1c-0.1-0.3,0.1-0.7,0.4-0.8h0   C42.9,76.3,43.3,76.5,43.4,76.8z"></path><path d="M45.7,77.6L53.3,94c0.2,0.3,0,0.7-0.3,0.9h0c-0.3,0.2-0.7,0-0.9-0.3l-7.7-16.4c-0.2-0.3,0-0.7,0.3-0.9h0   C45.1,77.1,45.5,77.3,45.7,77.6z"></path></g></svg><g fill="#ffffff" transform="translate(23.625,21.7372127285347)"><g transform="translate(0, 0)"><g><path d="M9.42 0.30C10.92 0.30 12.84 0.06 13.77-0.33L13.77-4.86C12.60-4.41 11.58-4.32 10.53-4.32C8.04-4.32 6.78-5.07 6.78-8.10C6.78-11.10 8.10-11.94 10.41-11.94C11.52-11.94 12.48-11.82 13.56-11.43L13.56-16.05C12.48-16.38 10.86-16.50 9.42-16.50C4.14-16.50 1.02-14.76 1.02-8.10C1.02-1.44 4.14 0.30 9.42 0.30Z" transform="translate(-1.02, 16.5)"></path></g></g></g></g><mask id="43f125a2-53be-4a12-8333-d1d659ef1472"><g><svg xmlns="http://www.w3.org/2000/svg" xmlns:xlink="http://www.w3.org/1999/xlink" version="1.1" x="0" y="0" viewBox="5.174516201019287 4.919494152069092 89.65097045898438 90.0610122680664" enable-background="new 0 0 100 100" xml:space="preserve" width="60" height="60.2744254570694" stroke="#ffffff" fill="#ffffff"><g><path d="M54.4,78.4l12.8,12.8c0.3,0.3,0.7,0.3,0.9,0l0,0c0.3-0.3,0.3-0.7,0-0.9L55.3,77.5c-0.3-0.3-0.7-0.3-0.9,0h0   C54.2,77.7,54.2,78.1,54.4,78.4z"></path><path d="M67.3,91.2L54.4,78.4c-0.3-0.3-0.3-0.7,0-0.9h0c0.3-0.3,0.7-0.3,0.9,0l12.8,12.8c0.3,0.3,0.3,0.7,0,0.9l0,0   C67.9,91.4,67.5,91.4,67.3,91.2z"></path><path d="M68.2,90.3L55.3,77.5c-0.3-0.3-0.7-0.3-0.9,0l0,0c-0.3,0.3-0.3,0.7,0,0.9l12.8,12.8c0.3,0.3,0.7,0.3,0.9,0l0,0   C68.4,90.9,68.4,90.5,68.2,90.3z"></path><path d="M45.7,77.6l7.7,16.4c0.2,0.3,0,0.7-0.3,0.9h0c-0.3,0.2-0.7,0-0.9-0.3l-7.7-16.4c-0.2-0.3,0-0.7,0.3-0.9h0   C45.1,77.2,45.5,77.3,45.7,77.6z"></path><path d="M48.1,77.6l9.1,15.7c0.2,0.3,0.1,0.7-0.2,0.9l0,0c-0.3,0.2-0.7,0.1-0.9-0.2L47,78.2c-0.2-0.3-0.1-0.7,0.2-0.9l0,0   C47.5,77.2,47.9,77.3,48.1,77.6z"></path><path d="M50.5,77.5l10.4,14.9c0.2,0.3,0.1,0.7-0.2,0.9v0c-0.3,0.2-0.7,0.1-0.9-0.2L49.5,78.3c-0.2-0.3-0.1-0.7,0.2-0.9l0,0   C49.9,77.2,50.3,77.2,50.5,77.5z"></path><path d="M53,77.5l11.7,13.9c0.2,0.3,0.2,0.7-0.1,0.9l0,0c-0.3,0.2-0.7,0.2-0.9-0.1L52,78.3c-0.2-0.3-0.2-0.7,0.1-0.9v0   C52.3,77.2,52.7,77.2,53,77.5z"></path><path d="M55.3,77.5l12.8,12.8c0.3,0.3,0.3,0.7,0,0.9l0,0c-0.3,0.3-0.7,0.3-0.9,0L54.4,78.4c-0.3-0.3-0.3-0.7,0-0.9l0,0   C54.7,77.2,55.1,77.2,55.3,77.5z"></path><path d="M63.9,75.1l16.4,7.7c0.3,0.2,0.7,0,0.9-0.3h0c0.2-0.3,0-0.7-0.3-0.9L64.4,74c-0.3-0.2-0.7,0-0.9,0.3l0,0   C63.4,74.6,63.6,75,63.9,75.1z"></path><path d="M80.3,82.8l-16.4-7.7c-0.3-0.2-0.5-0.5-0.3-0.9l0,0c0.2-0.3,0.5-0.5,0.9-0.3l16.4,7.7c0.3,0.2,0.5,0.5,0.3,0.9h0   C81,82.8,80.7,83,80.3,82.8z"></path><path d="M80.9,81.6L64.4,74c-0.3-0.2-0.7,0-0.9,0.3h0c-0.2,0.3,0,0.7,0.3,0.9l16.4,7.7c0.3,0.2,0.7,0,0.9-0.3l0,0   C81.3,82.2,81.2,81.8,80.9,81.6z"></path><path d="M55.4,77.5l12.8,12.8c0.3,0.3,0.3,0.7,0,0.9l0,0c-0.3,0.3-0.7,0.3-0.9,0L54.5,78.4c-0.3-0.3-0.3-0.7,0-0.9l0,0   C54.7,77.2,55.1,77.2,55.4,77.5z"></path><path d="M57.6,76.6l13.9,11.7c0.3,0.2,0.3,0.6,0.1,0.9l0,0c-0.2,0.3-0.6,0.3-0.9,0.1L56.8,77.6c-0.3-0.2-0.3-0.6-0.1-0.9l0,0   C57,76.4,57.4,76.4,57.6,76.6z"></path><path d="M59.9,75.7l14.9,10.4c0.3,0.2,0.4,0.6,0.2,0.9l0,0c-0.2,0.3-0.6,0.4-0.9,0.2L59.2,76.7c-0.3-0.2-0.4-0.6-0.2-0.9l0,0   C59.2,75.6,59.6,75.5,59.9,75.7z"></path><path d="M62.2,74.8l15.7,9.1c0.3,0.2,0.4,0.6,0.2,0.9l0,0c-0.2,0.3-0.6,0.4-0.9,0.2l-15.7-9.1c-0.3-0.2-0.4-0.6-0.2-0.9l0,0   C61.5,74.8,61.9,74.6,62.2,74.8z"></path><path d="M64.4,74l16.4,7.7c0.3,0.2,0.5,0.5,0.3,0.9l0,0c-0.2,0.3-0.5,0.5-0.9,0.3l-16.4-7.7c-0.3-0.2-0.5-0.5-0.3-0.9l0,0   C63.7,74,64.1,73.8,64.4,74z"></path><path d="M71.6,68.9l18.1,1.6c0.4,0,0.7-0.2,0.7-0.6l0,0c0-0.4-0.2-0.7-0.6-0.7l-18.1-1.6c-0.4,0-0.7,0.2-0.7,0.6l0,0   C71,68.5,71.3,68.9,71.6,68.9z"></path><path d="M89.7,70.5l-18.1-1.6c-0.4,0-0.6-0.3-0.6-0.7l0,0c0-0.4,0.3-0.6,0.7-0.6l18.1,1.6c0.4,0,0.6,0.3,0.6,0.7l0,0   C90.4,70.2,90,70.5,89.7,70.5z"></path><path d="M89.8,69.2l-18.1-1.6c-0.4,0-0.7,0.2-0.7,0.6l0,0c0,0.4,0.2,0.7,0.6,0.7l18.1,1.6c0.4,0,0.7-0.2,0.7-0.6l0,0   C90.4,69.5,90.2,69.2,89.8,69.2z"></path><path d="M64.4,74l16.4,7.7c0.3,0.2,0.5,0.5,0.3,0.9l0,0c-0.2,0.3-0.5,0.5-0.9,0.3l-16.4-7.7c-0.3-0.2-0.5-0.5-0.3-0.9h0   C63.7,74,64.1,73.8,64.4,74z"></path><path d="M66.2,72.4l17.1,6.2c0.3,0.1,0.5,0.5,0.4,0.8l0,0c-0.1,0.3-0.5,0.5-0.8,0.4l-17.1-6.2c-0.3-0.1-0.5-0.5-0.4-0.8l0,0   C65.5,72.4,65.9,72.3,66.2,72.4z"></path><path d="M68.1,70.8l17.5,4.7c0.3,0.1,0.5,0.4,0.5,0.8l0,0c-0.1,0.3-0.4,0.5-0.8,0.5L67.8,72c-0.3-0.1-0.5-0.4-0.5-0.8l0,0   C67.4,70.9,67.8,70.7,68.1,70.8z"></path><path d="M69.9,69.2l17.9,3.2c0.3,0.1,0.6,0.4,0.5,0.7l0,0c-0.1,0.3-0.4,0.6-0.7,0.5l-17.9-3.2c-0.3-0.1-0.6-0.4-0.5-0.7v0   C69.2,69.3,69.6,69.1,69.9,69.2z"></path><path d="M71.7,67.6l18.1,1.6c0.4,0,0.6,0.3,0.6,0.7l0,0c0,0.4-0.3,0.6-0.7,0.6l-18.1-1.6c-0.4,0-0.6-0.3-0.6-0.7l0,0   C71.1,67.8,71.4,67.6,71.7,67.6z"></path><path d="M76.8,60.3l17.5-4.7c0.3-0.1,0.5-0.4,0.5-0.8l0,0c-0.1-0.3-0.4-0.5-0.8-0.5l-17.5,4.7c-0.3,0.1-0.5,0.4-0.5,0.8v0   C76.1,60.2,76.4,60.4,76.8,60.3z"></path><path d="M94.3,55.6l-17.5,4.7c-0.3,0.1-0.7-0.1-0.8-0.5v0c-0.1-0.3,0.1-0.7,0.5-0.8L94,54.4c0.3-0.1,0.7,0.1,0.8,0.5l0,0   C94.9,55.2,94.7,55.5,94.3,55.6z"></path><path d="M94,54.4l-17.5,4.7c-0.3,0.1-0.5,0.4-0.5,0.8v0c0.1,0.3,0.4,0.5,0.8,0.5l17.5-4.7c0.3-0.1,0.5-0.4,0.5-0.8l0,0   C94.7,54.5,94.3,54.3,94,54.4z"></path><path d="M71.8,67.6l18.1,1.6c0.4,0,0.6,0.3,0.6,0.7h0c0,0.4-0.3,0.6-0.7,0.6l-18.1-1.6c-0.4,0-0.6-0.3-0.6-0.7l0,0   C71.1,67.8,71.4,67.5,71.8,67.6z"></path><path d="M72.9,65.5h18.1c0.4,0,0.6,0.3,0.6,0.6v0c0,0.4-0.3,0.6-0.6,0.6H72.9c-0.4,0-0.6-0.3-0.6-0.6v0   C72.3,65.8,72.6,65.5,72.9,65.5z"></path><path d="M74.1,63.3l18.1-1.6c0.4,0,0.7,0.2,0.7,0.6l0,0c0,0.4-0.2,0.7-0.6,0.7l-18.1,1.6c-0.4,0-0.7-0.2-0.7-0.6l0,0   C73.5,63.6,73.8,63.3,74.1,63.3z"></path><path d="M75.3,61.2L93.2,58c0.3-0.1,0.7,0.2,0.7,0.5v0c0.1,0.3-0.2,0.7-0.5,0.7l-17.9,3.2c-0.3,0.1-0.7-0.2-0.7-0.5l0,0   C74.7,61.6,74.9,61.2,75.3,61.2z"></path><path d="M76.4,59.1L94,54.4c0.3-0.1,0.7,0.1,0.8,0.5l0,0c0.1,0.3-0.1,0.7-0.5,0.8l-17.5,4.7c-0.3,0.1-0.7-0.1-0.8-0.5l0,0   C75.9,59.5,76.1,59.2,76.4,59.1z"></path><path d="M78.7,50.6l14.9-10.4c0.3-0.2,0.4-0.6,0.2-0.9l0,0c-0.2-0.3-0.6-0.4-0.9-0.2L77.9,49.5c-0.3,0.2-0.4,0.6-0.2,0.9l0,0   C78,50.7,78.4,50.8,78.7,50.6z"></path><path d="M93.6,40.2L78.7,50.6c-0.3,0.2-0.7,0.1-0.9-0.2l0,0c-0.2-0.3-0.1-0.7,0.2-0.9l14.9-10.4c0.3-0.2,0.7-0.1,0.9,0.2l0,0   C93.9,39.6,93.8,40,93.6,40.2z"></path><path d="M92.8,39.1L77.9,49.5c-0.3,0.2-0.4,0.6-0.2,0.9l0,0c0.2,0.3,0.6,0.4,0.9,0.2l14.9-10.4c0.3-0.2,0.4-0.6,0.2-0.9l0,0   C93.5,39,93.1,38.9,92.8,39.1z"></path><path d="M76.4,59.1L94,54.4c0.3-0.1,0.7,0.1,0.8,0.5v0c0.1,0.3-0.1,0.7-0.5,0.8l-17.5,4.7c-0.3,0.1-0.7-0.1-0.8-0.5l0,0   C75.9,59.5,76.1,59.2,76.4,59.1z"></path><path d="M76.8,56.7l17.1-6.2c0.3-0.1,0.7,0.1,0.8,0.4v0c0.1,0.3-0.1,0.7-0.4,0.8l-17.1,6.2c-0.3,0.1-0.7-0.1-0.8-0.4v0   C76.3,57.2,76.5,56.8,76.8,56.7z"></path><path d="M77.2,54.3l16.4-7.7c0.3-0.2,0.7,0,0.9,0.3l0,0c0.2,0.3,0,0.7-0.3,0.9l-16.4,7.7c-0.3,0.2-0.7,0-0.9-0.3l0,0   C76.7,54.8,76.9,54.4,77.2,54.3z"></path><path d="M77.6,51.9l15.7-9.1c0.3-0.2,0.7-0.1,0.9,0.2l0,0c0.2,0.3,0.1,0.7-0.2,0.9L78.2,53c-0.3,0.2-0.7,0.1-0.9-0.2l0,0   C77.2,52.4,77.3,52.1,77.6,51.9z"></path><path d="M77.9,49.5l14.9-10.4c0.3-0.2,0.7-0.1,0.9,0.2l0,0c0.2,0.3,0.1,0.7-0.2,0.9L78.7,50.6c-0.3,0.2-0.7,0.1-0.9-0.2l0,0   C77.6,50.1,77.7,49.7,77.9,49.5z"></path><path d="M77.1,40.7l10.4-14.9c0.2-0.3,0.1-0.7-0.2-0.9h0c-0.3-0.2-0.7-0.1-0.9,0.2L76.1,40c-0.2,0.3-0.1,0.7,0.2,0.9l0,0   C76.5,41.1,76.9,41,77.1,40.7z"></path><path d="M87.6,25.8L77.1,40.7c-0.2,0.3-0.6,0.4-0.9,0.2l0,0c-0.3-0.2-0.4-0.6-0.2-0.9l10.4-14.9c0.2-0.3,0.6-0.4,0.9-0.2h0   C87.7,25.2,87.8,25.6,87.6,25.8z"></path><path d="M86.5,25.1L76.1,40c-0.2,0.3-0.1,0.7,0.2,0.9l0,0c0.3,0.2,0.7,0.1,0.9-0.2l10.4-14.9c0.2-0.3,0.1-0.7-0.2-0.9h0   C87.1,24.7,86.7,24.8,86.5,25.1z"></path><path d="M78,49.5l14.9-10.4c0.3-0.2,0.7-0.1,0.9,0.2v0c0.2,0.3,0.1,0.7-0.2,0.9L78.7,50.5c-0.3,0.2-0.7,0.1-0.9-0.2l0,0   C77.6,50.1,77.7,49.7,78,49.5z"></path><path d="M77.5,47.1l13.9-11.7c0.3-0.2,0.7-0.2,0.9,0.1l0,0c0.2,0.3,0.2,0.7-0.1,0.9L78.3,48.1c-0.3,0.2-0.7,0.2-0.9-0.1l0,0   C77.2,47.8,77.2,47.3,77.5,47.1z"></path><path d="M77,44.7l12.8-12.8c0.3-0.3,0.7-0.3,0.9,0v0c0.3,0.3,0.3,0.7,0,0.9L77.9,45.6c-0.3,0.3-0.7,0.3-0.9,0v0   C76.8,45.4,76.8,44.9,77,44.7z"></path><path d="M76.5,42.3l11.7-13.9c0.2-0.3,0.6-0.3,0.9-0.1h0c0.3,0.2,0.3,0.6,0.1,0.9L77.5,43.1c-0.2,0.3-0.6,0.3-0.9,0.1l0,0   C76.4,43,76.3,42.6,76.5,42.3z"></path><path d="M76.1,40l10.4-14.9c0.2-0.3,0.6-0.4,0.9-0.2h0c0.3,0.2,0.4,0.6,0.2,0.9L77.1,40.7c-0.2,0.3-0.6,0.4-0.9,0.2l0,0   C76,40.7,75.9,40.3,76.1,40z"></path><path d="M72.3,32L77,14.5c0.1-0.3-0.1-0.7-0.5-0.8l0,0c-0.3-0.1-0.7,0.1-0.8,0.5l-4.7,17.5c-0.1,0.3,0.1,0.7,0.5,0.8l0,0   C71.9,32.6,72.2,32.4,72.3,32z"></path><path d="M77,14.5L72.3,32c-0.1,0.3-0.4,0.5-0.8,0.5l0,0c-0.3-0.1-0.5-0.4-0.5-0.8l4.7-17.5c0.1-0.3,0.4-0.5,0.8-0.5l0,0   C76.9,13.8,77.1,14.1,77,14.5z"></path><path d="M75.8,14.1l-4.7,17.5c-0.1,0.3,0.1,0.7,0.5,0.8l0,0c0.3,0.1,0.7-0.1,0.8-0.5L77,14.5c0.1-0.3-0.1-0.7-0.5-0.8v0   C76.2,13.6,75.9,13.8,75.8,14.1z"></path><path d="M76.1,40l10.4-14.9c0.2-0.3,0.6-0.4,0.9-0.2h0c0.3,0.2,0.4,0.6,0.2,0.9L77.1,40.7c-0.2,0.3-0.6,0.4-0.9,0.2l0,0   C76,40.7,75.9,40.3,76.1,40z"></path><path d="M74.8,37.9l9.1-15.7c0.2-0.3,0.6-0.4,0.9-0.2l0,0c0.3,0.2,0.4,0.6,0.2,0.9L76,38.6c-0.2,0.3-0.6,0.4-0.9,0.2l0,0   C74.8,38.6,74.7,38.2,74.8,37.9z"></path><path d="M73.6,35.8l7.7-16.4c0.2-0.3,0.5-0.5,0.9-0.3v0c0.3,0.2,0.5,0.5,0.3,0.9l-7.7,16.4c-0.2,0.3-0.5,0.5-0.9,0.3l0,0   C73.6,36.5,73.4,36.1,73.6,35.8z"></path><path d="M72.3,33.7l6.2-17.1c0.1-0.3,0.5-0.5,0.8-0.4l0,0c0.3,0.1,0.5,0.5,0.4,0.8l-6.2,17.1c-0.1,0.3-0.5,0.5-0.8,0.4l0,0   C72.4,34.4,72.2,34.1,72.3,33.7z"></path><path d="M71.1,31.7l4.7-17.5c0.1-0.3,0.4-0.5,0.8-0.5v0c0.3,0.1,0.5,0.4,0.5,0.8L72.3,32c-0.1,0.3-0.4,0.5-0.8,0.5l0,0   C71.2,32.4,71,32,71.1,31.7z"></path><path d="M64.8,25.4L63.2,7.4c0-0.4-0.3-0.6-0.7-0.6l0,0c-0.4,0-0.6,0.3-0.6,0.7l1.6,18.1c0,0.4,0.3,0.6,0.7,0.6l0,0   C64.6,26.1,64.8,25.8,64.8,25.4z"></path><path d="M63.2,7.4l1.6,18.1c0,0.4-0.2,0.7-0.6,0.7l0,0c-0.4,0-0.7-0.2-0.7-0.6L61.9,7.5c0-0.4,0.2-0.7,0.6-0.7l0,0   C62.9,6.8,63.2,7,63.2,7.4z"></path><path d="M61.9,7.5l1.6,18.1c0,0.4,0.3,0.6,0.7,0.6l0,0c0.4,0,0.6-0.3,0.6-0.7L63.2,7.4c0-0.4-0.3-0.6-0.7-0.6l0,0   C62.2,6.8,61.9,7.1,61.9,7.5z"></path><path d="M71.1,31.6l4.7-17.5c0.1-0.3,0.4-0.5,0.8-0.5l0,0c0.3,0.1,0.5,0.4,0.5,0.8L72.3,32c-0.1,0.3-0.4,0.5-0.8,0.5l0,0   C71.2,32.3,71,32,71.1,31.6z"></path><path d="M69.2,30.1l3.2-17.9c0.1-0.3,0.4-0.6,0.7-0.5l0,0c0.3,0.1,0.6,0.4,0.5,0.7l-3.2,17.9c-0.1,0.3-0.4,0.6-0.7,0.5l0,0   C69.4,30.8,69.1,30.5,69.2,30.1z"></path><path d="M67.3,28.6l1.6-18.1c0-0.4,0.3-0.6,0.7-0.6h0c0.4,0,0.6,0.3,0.6,0.7l-1.6,18.1c0,0.4-0.3,0.6-0.7,0.6l0,0   C67.5,29.2,67.2,28.9,67.3,28.6z"></path><path d="M65.4,27.1V8.9c0-0.4,0.3-0.6,0.6-0.6l0,0c0.4,0,0.6,0.3,0.6,0.6v18.1c0,0.4-0.3,0.6-0.6,0.6l0,0   C65.7,27.7,65.4,27.4,65.4,27.1z"></path><path d="M63.5,25.6L61.9,7.5c0-0.4,0.2-0.7,0.6-0.7l0,0c0.4,0,0.7,0.2,0.7,0.6l1.6,18.1c0,0.4-0.2,0.7-0.6,0.7l0,0   C63.9,26.2,63.6,25.9,63.5,25.6z"></path><path d="M55.5,21.8L47.9,5.4c-0.2-0.3-0.5-0.5-0.9-0.3v0c-0.3,0.2-0.5,0.5-0.3,0.9l7.7,16.4c0.2,0.3,0.5,0.5,0.9,0.3l0,0   C55.5,22.5,55.7,22.2,55.5,21.8z"></path><path d="M47.9,5.4l7.7,16.4c0.2,0.3,0,0.7-0.3,0.9l0,0c-0.3,0.2-0.7,0-0.9-0.3L46.7,5.9c-0.2-0.3,0-0.7,0.3-0.9v0   C47.3,4.9,47.7,5.1,47.9,5.4z"></path><path d="M46.7,5.9l7.7,16.4c0.2,0.3,0.5,0.5,0.9,0.3h0c0.3-0.2,0.5-0.5,0.3-0.9L47.9,5.4c-0.2-0.3-0.5-0.5-0.9-0.3v0   C46.7,5.2,46.5,5.6,46.7,5.9z"></path><path d="M63.5,25.5L61.9,7.4c0-0.4,0.2-0.7,0.6-0.7l0,0c0.4,0,0.7,0.2,0.7,0.6l1.6,18.1c0,0.4-0.2,0.7-0.6,0.7l0,0   C63.9,26.1,63.6,25.9,63.5,25.5z"></path><path d="M61.2,24.7L58.1,6.9c-0.1-0.3,0.2-0.7,0.5-0.7l0,0c0.3-0.1,0.7,0.2,0.7,0.5l3.2,17.9c0.1,0.3-0.2,0.7-0.5,0.7h0   C61.6,25.3,61.3,25.1,61.2,24.7z"></path><path d="M58.9,23.9L54.2,6.4c-0.1-0.3,0.1-0.7,0.5-0.8v0c0.3-0.1,0.7,0.1,0.8,0.5l4.7,17.5c0.1,0.3-0.1,0.7-0.5,0.8h0   C59.4,24.5,59,24.3,58.9,23.9z"></path><path d="M56.6,23.2L50.4,6.1c-0.1-0.3,0.1-0.7,0.4-0.8v0c0.3-0.1,0.7,0.1,0.8,0.4l6.2,17.1c0.1,0.3-0.1,0.7-0.4,0.8l0,0   C57.1,23.7,56.7,23.5,56.6,23.2z"></path><path d="M54.4,22.4L46.7,5.9c-0.2-0.3,0-0.7,0.3-0.9l0,0c0.3-0.2,0.7,0,0.9,0.3l7.7,16.4c0.2,0.3,0,0.7-0.3,0.9h0   C54.9,22.8,54.5,22.7,54.4,22.4z"></path><path d="M45.6,21.6L32.7,8.8c-0.3-0.3-0.7-0.3-0.9,0v0c-0.3,0.3-0.3,0.7,0,0.9l12.8,12.8c0.3,0.3,0.7,0.3,0.9,0l0,0   C45.8,22.3,45.8,21.9,45.6,21.6z"></path><path d="M32.7,8.8l12.8,12.8c0.3,0.3,0.3,0.7,0,0.9v0c-0.3,0.3-0.7,0.3-0.9,0L31.8,9.7c-0.3-0.3-0.3-0.7,0-0.9v0   C32.1,8.6,32.5,8.6,32.7,8.8z"></path><path d="M31.8,9.7l12.8,12.8c0.3,0.3,0.7,0.3,0.9,0l0,0c0.3-0.3,0.3-0.7,0-0.9L32.7,8.8c-0.3-0.3-0.7-0.3-0.9,0l0,0   C31.6,9.1,31.6,9.5,31.8,9.7z"></path><path d="M54.3,22.4L46.7,5.9c-0.2-0.3,0-0.7,0.3-0.9v0c0.3-0.2,0.7,0,0.9,0.3l7.7,16.4c0.2,0.3,0,0.7-0.3,0.9v0   C54.9,22.8,54.5,22.7,54.3,22.4z"></path><path d="M51.9,22.4L42.8,6.7c-0.2-0.3-0.1-0.7,0.2-0.9v0c0.3-0.2,0.7-0.1,0.9,0.2L53,21.8c0.2,0.3,0.1,0.7-0.2,0.9l0,0   C52.5,22.8,52.1,22.7,51.9,22.4z"></path><path d="M49.4,22.5L39,7.6c-0.2-0.3-0.1-0.7,0.2-0.9v0c0.3-0.2,0.7-0.1,0.9,0.2l10.4,14.9c0.2,0.3,0.1,0.7-0.2,0.9h0   C50.1,22.8,49.6,22.8,49.4,22.5z"></path><path d="M47,22.5L35.4,8.6c-0.2-0.3-0.2-0.7,0.1-0.9v0c0.3-0.2,0.7-0.2,0.9,0.1L48,21.7c0.2,0.3,0.2,0.7-0.1,0.9l0,0   C47.7,22.8,47.3,22.8,47,22.5z"></path><path d="M44.6,22.5L31.8,9.7c-0.3-0.3-0.3-0.7,0-0.9l0,0c0.3-0.3,0.7-0.3,0.9,0l12.8,12.8c0.3,0.3,0.3,0.7,0,0.9l0,0   C45.3,22.8,44.9,22.8,44.6,22.5z"></path><path d="M36.1,24.9l-16.4-7.7c-0.3-0.2-0.7,0-0.9,0.3v0c-0.2,0.3,0,0.7,0.3,0.9L35.6,26c0.3,0.2,0.7,0,0.9-0.3v0   C36.6,25.4,36.5,25,36.1,24.9z"></path><path d="M19.7,17.2l16.4,7.7c0.3,0.2,0.5,0.5,0.3,0.9l0,0c-0.2,0.3-0.5,0.5-0.9,0.3l-16.4-7.7c-0.3-0.2-0.5-0.5-0.3-0.9v0   C19,17.2,19.4,17,19.7,17.2z"></path><path d="M19.2,18.4L35.6,26c0.3,0.2,0.7,0,0.9-0.3v0c0.2-0.3,0-0.7-0.3-0.9l-16.4-7.7c-0.3-0.2-0.7,0-0.9,0.3v0   C18.7,17.8,18.8,18.2,19.2,18.4z"></path><path d="M44.6,22.5L31.8,9.7c-0.3-0.3-0.3-0.7,0-0.9l0,0c0.3-0.3,0.7-0.3,0.9,0l12.8,12.8c0.3,0.3,0.3,0.7,0,0.9l0,0   C45.3,22.8,44.9,22.8,44.6,22.5z"></path><path d="M42.4,23.4L28.5,11.8c-0.3-0.2-0.3-0.6-0.1-0.9l0,0c0.2-0.3,0.6-0.3,0.9-0.1l13.9,11.7c0.3,0.2,0.3,0.6,0.1,0.9l0,0   C43.1,23.6,42.7,23.6,42.4,23.4z"></path><path d="M40.1,24.3L25.2,13.9c-0.3-0.2-0.4-0.6-0.2-0.9v0c0.2-0.3,0.6-0.4,0.9-0.2l14.9,10.4c0.3,0.2,0.4,0.6,0.2,0.9h0   C40.8,24.4,40.4,24.5,40.1,24.3z"></path><path d="M37.8,25.2l-15.7-9.1c-0.3-0.2-0.4-0.6-0.2-0.9v0c0.2-0.3,0.6-0.4,0.9-0.2l15.7,9.1c0.3,0.2,0.4,0.6,0.2,0.9v0   C38.5,25.2,38.1,25.4,37.8,25.2z"></path><path d="M35.6,26l-16.4-7.7c-0.3-0.2-0.5-0.5-0.3-0.9v0c0.2-0.3,0.5-0.5,0.9-0.3l16.4,7.7c0.3,0.2,0.5,0.5,0.3,0.9v0   C36.3,26,35.9,26.2,35.6,26z"></path><path d="M28.4,31.1l-18.1-1.6c-0.4,0-0.7,0.2-0.7,0.6v0c0,0.4,0.2,0.7,0.6,0.7l18.1,1.6c0.4,0,0.7-0.2,0.7-0.6v0   C29,31.5,28.7,31.2,28.4,31.1z"></path><path d="M10.3,29.5l18.1,1.6c0.4,0,0.6,0.3,0.6,0.7v0c0,0.4-0.3,0.6-0.7,0.6l-18.1-1.6c-0.4,0-0.6-0.3-0.6-0.7v0   C9.6,29.8,9.9,29.5,10.3,29.5z"></path><path d="M10.2,30.8l18.1,1.6c0.4,0,0.7-0.2,0.7-0.6l0,0c0-0.4-0.2-0.7-0.6-0.7l-18.1-1.6c-0.4,0-0.7,0.2-0.7,0.6v0   C9.6,30.5,9.8,30.8,10.2,30.8z"></path><path d="M35.6,26l-16.4-7.7c-0.3-0.2-0.5-0.5-0.3-0.9h0c0.2-0.3,0.5-0.5,0.9-0.3l16.4,7.7c0.3,0.2,0.5,0.5,0.3,0.9l0,0   C36.3,26.1,35.9,26.2,35.6,26z"></path><path d="M33.7,27.6l-17.1-6.2c-0.3-0.1-0.5-0.5-0.4-0.8l0,0c0.1-0.3,0.5-0.5,0.8-0.4l17.1,6.2c0.3,0.1,0.5,0.5,0.4,0.8v0   C34.4,27.6,34.1,27.8,33.7,27.6z"></path><path d="M31.9,29.3l-17.5-4.7c-0.3-0.1-0.5-0.4-0.5-0.8h0c0.1-0.3,0.4-0.5,0.8-0.5L32.2,28c0.3,0.1,0.5,0.4,0.5,0.8v0   C32.6,29.1,32.2,29.3,31.9,29.3z"></path><path d="M30.1,30.8l-17.9-3.2c-0.3-0.1-0.6-0.4-0.5-0.7v0c0.1-0.3,0.4-0.6,0.7-0.5l17.9,3.2c0.3,0.1,0.6,0.4,0.5,0.7v0   C30.7,30.7,30.4,30.9,30.1,30.8z"></path><path d="M28.3,32.4l-18.1-1.6c-0.4,0-0.6-0.3-0.6-0.7v0c0-0.4,0.3-0.6,0.7-0.6l18.1,1.6c0.4,0,0.6,0.3,0.6,0.7l0,0   C28.9,32.2,28.6,32.4,28.3,32.4z"></path><path d="M23.2,39.6L5.7,44.3c-0.3,0.1-0.5,0.4-0.5,0.8v0c0.1,0.3,0.4,0.5,0.8,0.5l17.5-4.7c0.3-0.1,0.5-0.4,0.5-0.8l0,0   C23.9,39.8,23.6,39.6,23.2,39.6z"></path><path d="M5.7,44.3l17.5-4.7c0.3-0.1,0.7,0.1,0.8,0.5l0,0c0.1,0.3-0.1,0.7-0.5,0.8L6,45.6c-0.3,0.1-0.7-0.1-0.8-0.5l0,0   C5.2,44.8,5.4,44.4,5.7,44.3z"></path><path d="M6,45.6l17.5-4.7c0.3-0.1,0.5-0.4,0.5-0.8l0,0c-0.1-0.3-0.4-0.5-0.8-0.5L5.7,44.3c-0.3,0.1-0.5,0.4-0.5,0.8v0   C5.3,45.5,5.7,45.7,6,45.6z"></path><path d="M28.3,32.4l-18.1-1.6c-0.4,0-0.6-0.3-0.6-0.7v0c0-0.4,0.3-0.6,0.7-0.6l18.1,1.6c0.4,0,0.6,0.3,0.6,0.7v0   C28.9,32.2,28.6,32.4,28.3,32.4z"></path><path d="M27.1,34.5H8.9c-0.4,0-0.6-0.3-0.6-0.6v0c0-0.4,0.3-0.6,0.6-0.6h18.1c0.4,0,0.6,0.3,0.6,0.6v0   C27.7,34.2,27.5,34.5,27.1,34.5z"></path><path d="M25.9,36.7L7.8,38.3c-0.4,0-0.7-0.2-0.7-0.6v0c0-0.4,0.2-0.7,0.6-0.7l18.1-1.6c0.4,0,0.7,0.2,0.7,0.6v0   C26.5,36.3,26.3,36.7,25.9,36.7z"></path><path d="M24.7,38.8L6.9,42c-0.3,0.1-0.7-0.2-0.7-0.5l0,0c-0.1-0.3,0.2-0.7,0.5-0.7l17.9-3.2c0.3-0.1,0.7,0.2,0.7,0.5l0,0   C25.3,38.4,25.1,38.7,24.7,38.8z"></path><path d="M23.6,40.9L6,45.6c-0.3,0.1-0.7-0.1-0.8-0.5l0,0c-0.1-0.3,0.1-0.7,0.5-0.8l17.5-4.7c0.3-0.1,0.7,0.1,0.8,0.5l0,0   C24.1,40.4,23.9,40.8,23.6,40.9z"></path><path d="M21.3,49.4L6.4,59.9c-0.3,0.2-0.4,0.6-0.2,0.9h0c0.2,0.3,0.6,0.4,0.9,0.2l14.9-10.4c0.3-0.2,0.4-0.6,0.2-0.9l0,0   C22,49.3,21.6,49.2,21.3,49.4z"></path><path d="M6.4,59.9l14.9-10.4c0.3-0.2,0.7-0.1,0.9,0.2l0,0c0.2,0.3,0.1,0.7-0.2,0.9L7.2,60.9c-0.3,0.2-0.7,0.1-0.9-0.2h0   C6.1,60.5,6.2,60.1,6.4,59.9z"></path><path d="M7.2,60.9l14.9-10.4c0.3-0.2,0.4-0.6,0.2-0.9l0,0c-0.2-0.3-0.6-0.4-0.9-0.2L6.4,59.9c-0.3,0.2-0.4,0.6-0.2,0.9h0   C6.5,61,6.9,61.1,7.2,60.9z"></path><path d="M23.6,40.9L6,45.6c-0.3,0.1-0.7-0.1-0.8-0.5l0,0c-0.1-0.3,0.1-0.7,0.5-0.8l17.5-4.7c0.3-0.1,0.7,0.1,0.8,0.5v0   C24.1,40.5,23.9,40.8,23.6,40.9z"></path><path d="M23.2,43.3L6.1,49.5c-0.3,0.1-0.7-0.1-0.8-0.4h0c-0.1-0.3,0.1-0.7,0.4-0.8l17.1-6.2c0.3-0.1,0.7,0.1,0.8,0.4l0,0   C23.7,42.8,23.5,43.2,23.2,43.3z"></path><path d="M22.8,45.8L6.4,53.4c-0.3,0.2-0.7,0-0.9-0.3h0c-0.2-0.3,0-0.7,0.3-0.9l16.4-7.7c0.3-0.2,0.7,0,0.9,0.3l0,0   C23.3,45.2,23.1,45.6,22.8,45.8z"></path><path d="M22.4,48.1L6.7,57.2C6.4,57.4,6,57.3,5.8,57h0c-0.2-0.3-0.1-0.7,0.2-0.9L21.8,47c0.3-0.2,0.7-0.1,0.9,0.2l0,0   C22.8,47.6,22.7,48,22.4,48.1z"></path><path d="M22.1,50.5L7.2,60.9c-0.3,0.2-0.7,0.1-0.9-0.2h0c-0.2-0.3-0.1-0.7,0.2-0.9l14.9-10.4c0.3-0.2,0.7-0.1,0.9,0.2v0   C22.4,49.9,22.3,50.3,22.1,50.5z"></path><path d="M22.9,59.3L12.5,74.1c-0.2,0.3-0.1,0.7,0.2,0.9l0,0c0.3,0.2,0.7,0.1,0.9-0.2L23.9,60c0.2-0.3,0.1-0.7-0.2-0.9l0,0   C23.5,58.9,23.1,59,22.9,59.3z"></path><path d="M12.5,74.1l10.4-14.9c0.2-0.3,0.6-0.4,0.9-0.2l0,0c0.3,0.2,0.4,0.6,0.2,0.9L13.5,74.9c-0.2,0.3-0.6,0.4-0.9,0.2l0,0   C12.3,74.8,12.2,74.4,12.5,74.1z"></path><path d="M13.5,74.9L23.9,60c0.2-0.3,0.1-0.7-0.2-0.9h0c-0.3-0.2-0.7-0.1-0.9,0.2L12.5,74.1c-0.2,0.3-0.1,0.7,0.2,0.9l0,0   C12.9,75.2,13.3,75.2,13.5,74.9z"></path><path d="M22.1,50.5L7.2,60.9c-0.3,0.2-0.7,0.1-0.9-0.2h0c-0.2-0.3-0.1-0.7,0.2-0.9l14.9-10.4c0.3-0.2,0.7-0.1,0.9,0.2l0,0   C22.4,49.9,22.3,50.3,22.1,50.5z"></path><path d="M22.5,52.9L8.6,64.5c-0.3,0.2-0.7,0.2-0.9-0.1h0c-0.2-0.3-0.2-0.7,0.1-0.9l13.9-11.7c0.3-0.2,0.7-0.2,0.9,0.1v0   C22.8,52.2,22.8,52.6,22.5,52.9z"></path><path d="M23,55.3L10.2,68.1c-0.3,0.3-0.7,0.3-0.9,0h0c-0.3-0.3-0.3-0.7,0-0.9l12.8-12.8c0.3-0.3,0.7-0.3,0.9,0h0   C23.2,54.6,23.2,55,23,55.3z"></path><path d="M23.5,57.7L11.8,71.6c-0.2,0.3-0.6,0.3-0.9,0.1h0c-0.3-0.2-0.3-0.6-0.1-0.9l11.7-13.9c0.2-0.3,0.6-0.3,0.9-0.1l0,0   C23.7,57,23.7,57.4,23.5,57.7z"></path><path d="M23.9,60L13.5,74.9c-0.2,0.3-0.6,0.4-0.9,0.2h0c-0.3-0.2-0.4-0.6-0.2-0.9l10.4-14.9c0.2-0.3,0.6-0.4,0.9-0.2h0   C24,59.3,24.1,59.7,23.9,60z"></path><path d="M27.7,68L23,85.5c-0.1,0.3,0.1,0.7,0.5,0.8h0c0.3,0.1,0.7-0.1,0.8-0.5l4.7-17.5c0.1-0.3-0.1-0.7-0.5-0.8l0,0   C28.1,67.5,27.8,67.7,27.7,68z"></path><path d="M23,85.5L27.7,68c0.1-0.3,0.4-0.5,0.8-0.5v0c0.3,0.1,0.5,0.4,0.5,0.8l-4.7,17.5c-0.1,0.3-0.4,0.5-0.8,0.5l0,0   C23.1,86.2,22.9,85.9,23,85.5z"></path><path d="M24.2,85.9l4.7-17.5c0.1-0.3-0.1-0.7-0.5-0.8h0c-0.3-0.1-0.7,0.1-0.8,0.5L23,85.5c-0.1,0.3,0.1,0.7,0.5,0.8h0   C23.8,86.4,24.1,86.2,24.2,85.9z"></path><path d="M23.9,60L13.5,74.9c-0.2,0.3-0.6,0.4-0.9,0.2h0c-0.3-0.2-0.4-0.6-0.2-0.9l10.4-14.9c0.2-0.3,0.6-0.4,0.9-0.2h0   C24.1,59.4,24.1,59.8,23.9,60z"></path><path d="M25.2,62.1l-9.1,15.7c-0.2,0.3-0.6,0.4-0.9,0.2h0c-0.3-0.2-0.4-0.6-0.2-0.9l9.1-15.7c0.2-0.3,0.6-0.4,0.9-0.2l0,0   C25.2,61.4,25.3,61.8,25.2,62.1z"></path><path d="M26.4,64.2l-7.7,16.4c-0.2,0.3-0.5,0.5-0.9,0.3l0,0c-0.3-0.2-0.5-0.5-0.3-0.9l7.7-16.4c0.2-0.3,0.5-0.5,0.9-0.3h0   C26.5,63.5,26.6,63.9,26.4,64.2z"></path><path d="M27.7,66.3l-6.2,17.1c-0.1,0.3-0.5,0.5-0.8,0.4h0c-0.3-0.1-0.5-0.5-0.4-0.8l6.2-17.1c0.1-0.3,0.5-0.5,0.8-0.4l0,0   C27.6,65.6,27.8,66,27.7,66.3z"></path><path d="M28.9,68.3l-4.7,17.5c-0.1,0.3-0.4,0.5-0.8,0.5h0c-0.3-0.1-0.5-0.4-0.5-0.8L27.7,68c0.1-0.3,0.4-0.5,0.8-0.5h0   C28.8,67.6,29,68,28.9,68.3z"></path><path d="M27.7,68L23,85.5c-0.1,0.3,0.1,0.7,0.5,0.8l0,0c0.3,0.1,0.7-0.1,0.8-0.5l4.7-17.5c0.1-0.3-0.1-0.7-0.5-0.8v0   C28.1,67.5,27.8,67.7,27.7,68z"></path><path d="M23,85.5L27.7,68c0.1-0.3,0.4-0.5,0.8-0.5v0c0.3,0.1,0.5,0.4,0.5,0.8l-4.7,17.5c-0.1,0.3-0.4,0.5-0.8,0.5l0,0   C23.1,86.2,22.9,85.9,23,85.5z"></path><path d="M24.2,85.9l4.7-17.5c0.1-0.3-0.1-0.7-0.5-0.8l0,0c-0.3-0.1-0.7,0.1-0.8,0.5L23,85.5c-0.1,0.3,0.1,0.7,0.5,0.8l0,0   C23.8,86.4,24.1,86.2,24.2,85.9z"></path><path d="M27.7,66.3l-6.2,17.1c-0.1,0.3-0.5,0.5-0.8,0.4h0c-0.3-0.1-0.5-0.5-0.4-0.8l6.2-17.1c0.1-0.3,0.5-0.5,0.8-0.4l0,0   C27.6,65.6,27.8,66,27.7,66.3z"></path><path d="M28.9,68.3l-4.7,17.5c-0.1,0.3-0.4,0.5-0.8,0.5h0c-0.3-0.1-0.5-0.4-0.5-0.8L27.7,68c0.1-0.3,0.4-0.5,0.8-0.5h0   C28.8,67.6,29,68,28.9,68.3z"></path><path d="M35.2,74.5l1.6,18.1c0,0.4,0.3,0.6,0.7,0.6l0,0c0.4,0,0.6-0.3,0.6-0.7l-1.6-18.1c0-0.4-0.3-0.6-0.7-0.6l0,0   C35.4,73.9,35.1,74.2,35.2,74.5z"></path><path d="M36.8,92.6l-1.6-18.1c0-0.4,0.2-0.7,0.6-0.7l0,0c0.4,0,0.7,0.2,0.7,0.6L38,92.5c0,0.4-0.2,0.7-0.6,0.7l0,0   C37.1,93.2,36.8,93,36.8,92.6z"></path><path d="M38,92.5l-1.6-18.1c0-0.4-0.3-0.6-0.7-0.6l0,0c-0.4,0-0.6,0.3-0.6,0.7l1.6,18.1c0,0.4,0.3,0.6,0.7,0.6l0,0   C37.8,93.2,38.1,92.9,38,92.5z"></path><path d="M28.9,68.3l-4.7,17.5c-0.1,0.3-0.4,0.5-0.8,0.5l0,0c-0.3-0.1-0.5-0.4-0.5-0.8L27.7,68c0.1-0.3,0.4-0.5,0.8-0.5l0,0   C28.8,67.6,29,68,28.9,68.3z"></path><path d="M30.8,69.9l-3.2,17.9c-0.1,0.3-0.4,0.6-0.7,0.5h0c-0.3-0.1-0.6-0.4-0.5-0.7l3.2-17.9c0.1-0.3,0.4-0.6,0.7-0.5h0   C30.6,69.2,30.9,69.5,30.8,69.9z"></path><path d="M32.7,71.4l-1.6,18.1c0,0.4-0.3,0.6-0.7,0.6l0,0c-0.4,0-0.6-0.3-0.6-0.7l1.6-18.1c0-0.4,0.3-0.6,0.7-0.6l0,0   C32.5,70.7,32.8,71.1,32.7,71.4z"></path><path d="M34.6,72.9v18.1c0,0.4-0.3,0.6-0.6,0.6h0c-0.4,0-0.6-0.3-0.6-0.6V72.9c0-0.4,0.3-0.6,0.6-0.6h0   C34.3,72.3,34.6,72.6,34.6,72.9z"></path><path d="M36.5,74.4L38,92.5c0,0.4-0.2,0.7-0.6,0.7l0,0c-0.4,0-0.7-0.2-0.7-0.6l-1.6-18.1c0-0.4,0.2-0.7,0.6-0.7l0,0   C36.1,73.8,36.4,74.1,36.5,74.4z"></path><path d="M44.5,78.1l7.7,16.4c0.2,0.3,0.5,0.5,0.9,0.3h0c0.3-0.2,0.5-0.5,0.3-0.9l-7.7-16.4c-0.2-0.3-0.5-0.5-0.9-0.3h0   C44.5,77.4,44.3,77.8,44.5,78.1z"></path><path d="M52.2,94.6l-7.7-16.4c-0.2-0.3,0-0.7,0.3-0.9h0c0.3-0.2,0.7,0,0.9,0.3L53.3,94c0.2,0.3,0,0.7-0.3,0.9l0,0   C52.7,95.1,52.3,94.9,52.2,94.6z"></path><path d="M53.3,94l-7.7-16.4c-0.2-0.3-0.5-0.5-0.9-0.3h0c-0.3,0.2-0.5,0.5-0.3,0.9l7.7,16.4c0.2,0.3,0.5,0.5,0.9,0.3h0   C53.3,94.8,53.5,94.4,53.3,94z"></path><path d="M36.5,74.5l1.6,18.1c0,0.4-0.2,0.7-0.6,0.7l0,0c-0.4,0-0.7-0.2-0.7-0.6l-1.6-18.1c0-0.4,0.2-0.7,0.6-0.7l0,0   C36.2,73.8,36.5,74.1,36.5,74.5z"></path><path d="M38.8,75.2l3.2,17.9c0.1,0.3-0.2,0.7-0.5,0.7l0,0c-0.3,0.1-0.7-0.2-0.7-0.5l-3.2-17.9c-0.1-0.3,0.2-0.7,0.5-0.7h0   C38.4,74.7,38.7,74.9,38.8,75.2z"></path><path d="M41.1,76l4.7,17.5c0.1,0.3-0.1,0.7-0.5,0.8l0,0c-0.3,0.1-0.7-0.1-0.8-0.5l-4.7-17.5c-0.1-0.3,0.1-0.7,0.5-0.8h0   C40.7,75.5,41,75.7,41.1,76z"></path><path d="M43.4,76.8l6.2,17.1c0.1,0.3-0.1,0.7-0.4,0.8l0,0c-0.3,0.1-0.7-0.1-0.8-0.4l-6.2-17.1c-0.1-0.3,0.1-0.7,0.4-0.8h0   C42.9,76.3,43.3,76.5,43.4,76.8z"></path><path d="M45.7,77.6L53.3,94c0.2,0.3,0,0.7-0.3,0.9h0c-0.3,0.2-0.7,0-0.9-0.3l-7.7-16.4c-0.2-0.3,0-0.7,0.3-0.9h0   C45.1,77.1,45.5,77.3,45.7,77.6z"></path></g></svg><g transform="translate(23.625,21.7372127285347)" fill="#000000" stroke="#000000" stroke-width="3"><g transform="translate(0, 0)"><g><path d="M9.42 0.30C10.92 0.30 12.84 0.06 13.77-0.33L13.77-4.86C12.60-4.41 11.58-4.32 10.53-4.32C8.04-4.32 6.78-5.07 6.78-8.10C6.78-11.10 8.10-11.94 10.41-11.94C11.52-11.94 12.48-11.82 13.56-11.43L13.56-16.05C12.48-16.38 10.86-16.50 9.42-16.50C4.14-16.50 1.02-14.76 1.02-8.10C1.02-1.44 4.14 0.30 9.42 0.30Z" transform="translate(-1.02, 16.5)"></path></g></g></g><g transform="translate(23.625,21.7372127285347)" fill="#ffffff"><g transform="translate(0, 0)"><g><path d="M9.42 0.30C10.92 0.30 12.84 0.06 13.77-0.33L13.77-4.86C12.60-4.41 11.58-4.32 10.53-4.32C8.04-4.32 6.78-5.07 6.78-8.10C6.78-11.10 8.10-11.94 10.41-11.94C11.52-11.94 12.48-11.82 13.56-11.43L13.56-16.05C12.48-16.38 10.86-16.50 9.42-16.50C4.14-16.50 1.02-14.76 1.02-8.10C1.02-1.44 4.14 0.30 9.42 0.30Z" transform="translate(-1.02, 16.5)"></path></g></g></g></g></mask></svg> <defs><filter id="colors9333990933"><feColorMatrix type="matrix" values="0 0 0 0 0.99609375  0 0 0 0 0.99609375  0 0 0 0 0.99609375  0 0 0 1 0" class="icon-fecolormatrix"></feColorMatrix></filter> <filter id="colorsf9278056837"><feColorMatrix type="matrix" values="0 0 0 0 0.99609375  0 0 0 0 0.99609375  0 0 0 0 0.99609375  0 0 0 1 0" class="icon-fecolormatrix"></feColorMatrix></filter> <filter id="colorsb3740392162"><feColorMatrix type="matrix" values="0 0 0 0 0  0 0 0 0 0  0 0 0 0 0  0 0 0 1 0" class="icon-fecolormatrix"></feColorMatrix></filter></defs></g> <g transform="translate(0,67.2744255065918)"><g fill-rule="" class="tp-name iconsvg-namesvg"><g><path d="M14.13 0.45C16.38 0.45 19.26 0.09 20.65-0.49L20.65-7.29C18.90-6.61 17.37-6.48 15.79-6.48C12.06-6.48 10.17-7.60 10.17-12.15C10.17-16.65 12.15-17.91 15.62-17.91C17.28-17.91 18.72-17.73 20.34-17.14L20.34-24.07C18.72-24.57 16.29-24.75 14.13-24.75C6.21-24.75 1.53-22.14 1.53-12.15C1.53-2.16 6.21 0.45 14.13 0.45ZM36.45 0.45C44.19 0.45 48.87-2.16 48.87-12.15C48.87-22.14 44.19-24.75 36.45-24.75C28.71-24.75 24.03-22.14 24.03-12.15C24.03-2.16 28.71 0.45 36.45 0.45ZM36.45-5.76C33.57-5.76 32.67-7.20 32.67-12.15C32.67-17.10 33.57-18.63 36.45-18.63C39.33-18.63 40.23-17.10 40.23-12.15C40.23-7.20 39.33-5.76 36.45-5.76ZM68.31-34.20L68.31-21.87C67.41-23.63 65.56-24.75 61.38-24.75C53.68-24.75 51.93-19.26 51.93-12.15C51.93-4.23 53.68 0.45 61.38 0.45C65.79 0.45 67.45-0.94 68.40-2.92L68.89 0L76.77 0L76.77-34.20ZM64.58-5.76C61.11-5.76 60.57-8.19 60.57-12.15C60.57-15.88 61.11-18.63 64.58-18.63C67.95-18.63 68.72-16.06 68.72-12.15C68.72-7.88 68.00-5.76 64.58-5.76ZM104.72-13.72C104.72-21.15 102.38-24.75 93.73-24.75C85.68-24.75 81-22.14 81-12.15C81-2.16 85.68 0.45 93.33 0.45C98.14 0.45 102.02-0.45 103.50-1.48L103.50-7.79C102.06-6.93 98.33-6.03 95.04-6.03C91.94-6.03 90-6.88 89.50-9L104.44-9.90C104.58-10.26 104.72-11.74 104.72-13.72ZM89.46-14.80C89.64-17.82 90.90-18.50 93.78-18.50C96.48-18.50 97.16-17.23 97.16-15.39ZM116.23 0.27C122.76 0.27 126.63-1.57 126.63-7.92C126.63-12.29 125.69-13.86 120.64-15.30C116.82-16.38 116.19-16.34 116.19-17.23C116.19-18.13 116.50-18.50 119.03-18.50C121.23-18.50 124.20-17.95 125.50-17.59L125.78-23.94C124.33-24.43 121.59-24.75 118.66-24.75C110.56-24.75 108.18-22.09 108.18-17.01C108.18-12.87 109.35-11.47 114.39-10.17C117.77-9.31 118.44-9 118.44-7.74C118.44-6.43 117.77-6.25 115.65-6.25C113.44-6.25 110.88-6.66 108-7.51L108-0.49C110.83 0.09 113.13 0.27 116.23 0.27ZM142.65 0.45C144.90 0.45 147.78 0.09 149.18-0.49L149.18-7.29C147.42-6.61 145.89-6.48 144.31-6.48C140.58-6.48 138.69-7.60 138.69-12.15C138.69-16.65 140.67-17.91 144.14-17.91C145.80-17.91 147.24-17.73 148.86-17.14L148.86-24.07C147.24-24.57 144.81-24.75 142.65-24.75C134.73-24.75 130.05-22.14 130.05-12.15C130.05-2.16 134.73 0.45 142.65 0.45ZM157.77-26.82C161.73-26.82 162.41-27.22 162.41-31.18C162.41-35.10 161.73-35.41 157.77-35.41C153.86-35.41 153.14-35.10 153.14-31.18C153.14-27.22 153.86-26.82 157.77-26.82ZM153.50 0L162.05 0L162.05-24.30L153.50-24.30Z" transform="translate(-1.53, 35.415)"></path></g> <!----> <!----> <!----> <!----> <!----> <!----> <!----></g> <!----></g></g></svg>